<svg xmlns="http://www.w3.org/2000/svg"><defs><font id="streamline" horiz-adv-x="512"><font-face font-family="streamline" units-per-em="512" ascent="480" descent="-32"/><glyph unicode="&#97;" d="M459 256c-14 0-28-4-39-10l16 106c6 40-6 81-32 112-26 30-65 48-105 48h-86c-40 0-79-18-105-48-26-31-38-72-32-112l16-106c-11 6-25 10-39 10-29 0-53-24-53-53 0-22 13-41 33-50 6-2 10-8 10-14V96c0-41 33-75 74-75V11c0-6 5-11 11-11 6 0 11 5 11 11v10h234V11c0-6 5-11 11-11 6 0 11 5 11 11v10c41 0 74 34 74 75v43c0 6 4 12 10 14 20 9 33 28 33 50 0 29-24 53-53 53zM124 450c22 26 55 41 89 41h86c34 0 67-15 89-41 22-26 32-61 27-94l-20-129c-13-15-22-35-22-56v-16c-19 7-55 16-117 16-62 0-98-9-117-16v16c0 21-9 41-22 56L97 355c-5 34 5 69 27 95zm347-277c-14-6-23-19-23-34V96c0-29-24-53-53-53H117c-29 0-53 24-53 53v43c0 15-9 28-23 34-12 5-20 17-20 30 0 17 15 32 32 32 36 0 64-29 64-64v-52l17 11c0 0 32 19 122 19 90 0 122-19 122-19l17-11v52c0 35 28 64 64 64 17 0 32-15 32-32 0-13-8-25-20-30zM195 291c2-2 5-3 8-3 2 0 5 1 7 3l9 9c7-14 21-23 37-23 16 0 30 9 37 23l9-9c2-2 5-3 7-3 3 0 6 1 8 3 4 4 4 11 0 15l-14 14 14 14c4 4 4 11 0 15-4 4-11 4-15 0l-9-9c-7 14-21 23-37 23-16 0-30-9-37-23l-9 9c-4 4-11 4-15 0-4-4-4-11 0-15l14-14-14-14c-4-4-4-11 0-15zm61 50c12 0 21-9 21-21 0 0 0 0 0 0 0-12-9-21-21-21-12 0-21 9-21 21 0 0 0 0 0 0 0 12 9 21 21 21z"/><glyph unicode="&#98;" d="M459 437v54c0 0-161-50-93-131l-25-25c-34 30-78 49-128 49-106 0-192-86-192-192 0-49 19-94 49-128 0 0 0 0 0 0L24 18c-4-4-4-11 0-15 3-2 5-3 8-3 3 0 5 1 8 3l45 46c0 0 0 0 0 0 34-30 79-49 128-49 50 0 94 19 128 49 0 0 0 0 1 0l45-46c2-2 5-3 8-3 2 0 5 1 7 3 4 4 4 11 0 15l-45 46c0 0-1 0-1 0 31 34 49 79 49 128 0 49-18 94-49 128l25 25c14-12 27-17 40-17 57 0 91 109 91 109zm-22 0v-6l-21-21v39c7 4 14 7 21 11zm-66-32c3 10 12 20 24 30v-47l-14-13c-13 16-10 26-10 30zm13-213c0-94-77-171-171-171-94 0-170 77-170 171 0 94 76 171 170 171 44 0 83-17 113-43l-30-30c-22 19-51 30-83 30-70 0-128-57-128-128 0-71 58-128 128-128 71 0 128 57 128 128 0 32-11 60-30 83l30 30c27-30 43-70 43-113zm-128 0c0-24-19-43-43-43-23 0-42 19-42 43 0 24 19 43 42 43 8 0 16-3 22-6l-16-16c-2 0-4 0-6 0-11 0-21-9-21-21 0-12 10-21 21-21 12 0 22 9 22 21 0 2-1 4-1 5l16 17c4-7 6-14 6-22zm-6 52c-10 8-23 12-37 12-35 0-64-29-64-64 0-35 29-64 64-64 36 0 64 29 64 64 0 14-4 27-12 37l31 30c15-18 24-41 24-67 0-59-48-107-107-107-58 0-106 48-106 107 0 59 48 107 106 107 26 0 49-9 68-24zm171 105c-8 0-16 4-25 11l56 56h29c-14-31-37-67-60-67z"/><glyph unicode="&#99;" d="M416 171h-21v87c12 4 21 16 21 30v128c0 29-24 53-53 53v32c0 6-5 11-11 11h-64c-6 0-11-5-11-11v-32h-64v32c0 6-4 11-10 11h-64c-6 0-11-5-11-11v-32c-29 0-53-24-53-53V288c0-14 9-26 21-30v-87H75c-24 0-43-19-43-43V32C32 14 46 0 64 0h363c17 0 32 14 32 32v96c0 24-19 43-43 43zm21-43v-21h-42v42h21c12 0 21-9 21-21zm-106-21h-22v10c0 6-4 11-10 11-6 0-11-5-11-11v-10h-85v10c0 6-5 11-11 11-6 0-11-5-11-11v-10h-21v21c0 12 10 21 21 21h128c12 0 22-9 22-21zM160 85h21V75c0-6 5-11 11-11 6 0 11 5 11 11v10h85V75c0-6 5-11 11-11 6 0 10 5 10 11v10h22V21H160zm192 11v32c0 24-19 43-43 43H181c-23 0-42-19-42-43V21h-22v235h22v-21c0-18 14-32 32-32 17 0 32 14 32 32v21h85v-21c0-18 14-32 32-32 18 0 32 14 32 32v21h21V21h-21zM160 235v53c0 6 5 11 11 11 6 0 10-5 10-11v-53c0-6-4-11-10-11-6 0-11 5-11 11zm149 0v53c0 6 5 11 11 11 6 0 11-5 11-11v-53c0-6-5-11-11-11-6 0-11 5-11 11zm-10 256h42v-22h-42zm-150 0h43v-22h-43zm-53-75c0 18 14 32 32 32h235c17 0 32-14 32-32V288c0-6-5-11-11-11h-32v11c0 18-14 32-32 32-18 0-32-14-32-32v-11h-85v11c0 18-15 32-32 32-18 0-32-14-32-32v-11h-32c-6 0-11 5-11 11zM53 128c0 12 10 21 22 21h21v-42H53zm0-96v53h43V21H64c-6 0-11 5-11 11zm384 0c0-6-4-11-10-11h-32v64h42zM128 405h11v-10c0-6 4-11 10-11 6 0 11 5 11 11v10h203c6 0 10 5 10 11 0 6-4 11-10 11H128c-6 0-11-5-11-11 0-6 5-11 11-11z"/><glyph unicode="&#100;" d="M405 320h-32v75c0 64-52 117-117 117-65 0-117-53-117-117v-75h-32C48 320 0 272 0 213V75C0 34 33 0 75 0h362c42 0 75 34 75 75v138c0 59-48 107-107 107zm-245 75c0 53 43 96 96 96 53 0 96-43 96-96v-75H160zm-53-96h32v-32c0-6 4-11 10-11 6 0 11 5 11 11v32h192v-32c0-6 5-11 11-11 6 0 10 5 10 11v32h32c47 0 86-39 86-86v-86c-57-5-101-49-106-106H127c-5 57-49 101-106 106v86c0 47 39 86 86 86zM21 75v31c45-5 80-40 85-85H75c-30 0-54 24-54 54zm416-54h-31c5 45 40 80 85 85V75c0-30-24-54-54-54zM53 192h32v-32c0-6 5-11 11-11 6 0 11 5 11 11v32h352c6 0 10 5 10 11 0 6-4 10-10 10H53c-6 0-10-4-10-10 0-6 4-11 10-11z"/><glyph unicode="&#101;" d="M235 224c0 6-5 11-11 11h-43c-6 0-10-5-10-11 0-6 4-11 10-11h43c6 0 11 5 11 11zM96 299h192c6 0 11 4 11 10 0 6-5 11-11 11H96c-6 0-11-5-11-11 0-6 5-10 11-10zm245-42c60 5 107 55 107 116 0 61-47 112-107 117v11c0 6-4 11-10 11-6 0-11-5-11-11V277H75c-6 0-11-4-11-10 0-53 30-99 74-123L117 12c0-6 4-11 9-12 1 0 1 0 2 0 5 0 10 4 11 9l11 76h98v-4c-14-7-24-21-24-38 0-24 19-43 43-43 23 0 42 19 42 43 0 22-17 41-40 42l-2 59c41 22 70 64 74 113zm86 116c0-49-38-90-86-95v191c48-6 86-46 86-96zM86 256h234c-6-60-56-107-117-107-61 0-112 47-117 107zM288 43c0-12-10-22-21-22-12 0-22 10-22 22 0 11 10 21 22 21 11 0 21-10 21-21zm-41 64h-94l5 29c14-5 29-8 45-8 15 0 29 3 43 7z"/><glyph unicode="&#102;" d="M469 512H75c-6 0-11-5-11-11V288c0-6 5-11 11-11h32v-53H96c-6 0-11-5-11-11v-10H11c-6 0-11-5-11-11 0-6 5-11 11-11h74v-10c0-6 5-11 11-11h32v-11c0-6 5-10 11-10 6 0 10 4 10 10v11h32c6 0 11 5 11 11v42c0 6-5 11-11 11h-10v53h42V85H11C5 85 0 81 0 75V11C0 5 5 0 11 0h469c6 0 10 4 11 10l21 225v234c0 24-19 43-43 43zM171 181h-64v22h64zm-22 43h-21v53h21zM21 64h203c6 0 11 5 11 11v213c0 6-5 11-11 11H85v192h384c12 0 22-10 22-22v-64H373c-6 0-10-4-10-10 0-6 4-11 10-11h118v-21H373c-6 0-10-5-10-11 0-6 4-11 10-11h118v-21H373c-6 0-10-5-10-11 0-6 4-10 10-10h118v-43h-96c-6 0-11-5-11-11V21H21zm449-43h-65v214h86zM149 469c-23 0-42-19-42-42 0-24 19-43 42-43 24 0 43 19 43 43 0 23-19 42-43 42zm0-64c-11 0-21 10-21 22 0 11 10 21 21 21 12 0 22-10 22-21 0-12-10-22-22-22z"/><glyph unicode="&#103;" d="M405 427c-17 0-32-15-32-32 0-18-14-32-32-32-17 0-32 14-32 32 0 35-28 64-64 64-35 0-64-29-64-64v-22h-32c-6 0-10-4-10-10v-30C69 310 21 244 21 171 21 77 98 0 192 0c94 0 171 77 171 171 0 73-48 139-118 162v30c0 6-4 10-10 10h-32v22c0 23 19 42 42 42 24 0 43-19 43-42 0-30 24-54 53-54 30 0 54 24 54 54 0 6 4 10 10 10 6 0 11 5 11 11 0 6-5 11-11 11zM232 314c64-17 109-76 109-143 0-83-67-150-149-150-82 0-149 67-149 150 0 67 45 126 109 143 5 2 8 6 8 11v27h64v-27c0-5 3-9 8-11zm173 198c-6 0-10-5-10-11v-42c0-6 4-11 10-11 6 0 11 5 11 11v42c0 6-5 11-11 11zm31-77c2 0 5 2 7 4l30 30c4 4 4 11 0 15-4 4-11 4-15 0l-30-30c-4-4-4-11 0-15 2-2 5-4 8-4zm-68 4c2-2 4-4 7-4 3 0 6 2 8 4 4 4 4 11 0 15l-30 30c-5 4-11 4-16 0-4-4-4-11 0-15zm123-12h-43c-6 0-11-5-11-11 0-6 5-11 11-11h43c6 0 10 5 10 11 0 6-4 11-10 11zm-48-34c-4 5-11 5-15 0-4-4-4-11 0-15l30-30c2-2 5-3 8-3 2 0 5 1 7 3 4 4 4 11 0 15zM119 276c-28-20-47-49-53-83-6-33 1-67 21-96 2-3 5-4 9-4 2 0 4 1 6 2 5 3 6 10 3 15-34 48-22 115 26 148 5 4 6 10 3 15-4 5-10 6-15 3z"/><glyph unicode="&#104;" d="M245 21H75c-18 0-32 15-32 32v363c9-6 20-11 32-11h352V277c0-6 4-10 10-10 6 0 11 4 11 10v150H75c-18 0-32 14-32 32 0 17 14 32 32 32h362c6 0 11 4 11 10 0 6-5 11-11 11H75c-30 0-54-24-54-53V53C21 24 45 0 75 0h170c6 0 11 5 11 11 0 6-5 10-11 10zm118 235c-71 0-128-57-128-128C235 57 292 0 363 0c70 0 128 57 128 128 0 71-58 128-128 128zm0-235c-59 0-107 48-107 107 0 59 48 107 107 107 58 0 106-48 106-107 0-59-48-107-106-107zm35 104-25-25v81c0 6-4 11-10 11-6 0-11-5-11-11v-81l-24 25c-5 4-11 4-16 0-4-4-4-11 0-15l43-43c0 0 0 0 0 0l8-7 7 7c0 0 0 0 0 0l43 43c4 4 4 11 0 15-4 4-11 4-15 0zM75 469h352v-21H75z"/><glyph unicode="&#105;" d="M475 456c-3 2-7 3-10 1L245 353 26 457c-3 2-7 1-10-1-3-1-5-5-5-9V117c0-4 2-8 6-10L241 1c1-1 3-2 4-2 2 0 3 1 5 2l224 106c4 2 6 6 6 10v330c0 4-2 8-5 9zM32 431l203-97V27L32 124zm427-307-203-97v307l203 97zM59 470l186-88 186 88c6 3 8 9 5 15-2 5-9 7-14 5l-177-85-176 85c-6 2-12 0-15-5-2-6 0-12 5-15z"/><glyph unicode="&#106;" d="M459 448H53c-29 0-53-24-53-53V96c0-29 24-53 53-53h406c29 0 53 24 53 53v299c0 29-24 53-53 53zM53 427h406c17 0 32-15 32-32v-54H21v54c0 17 15 32 32 32zM459 64H53c-17 0-32 14-32 32v224h470V96c0-18-15-32-32-32zM107 384c0-12-10-21-22-21-11 0-21 9-21 21 0 12 10 21 21 21 12 0 22-9 22-21zm64 0c0-12-10-21-22-21-11 0-21 9-21 21 0 12 10 21 21 21 12 0 22-9 22-21zm64 0c0-12-10-21-22-21-11 0-21 9-21 21 0 12 10 21 21 21 12 0 22-9 22-21z"/><glyph unicode="&#107;" d="M469 256c0 24-19 43-42 43H320c-4 0-7 1-9 4-2 3-3 7-1 10 7 18 10 36 10 54v81c0 35-29 64-64 64-35 0-64-29-64-64v-81c0-18 4-36 10-54 2-3 1-7-1-10-2-3-5-4-9-4H85c-23 0-42-19-42-43v-85h21V11c0-6 5-11 11-11h53c4 0 8 2 10 6l22 45V11c0-3 1-6 3-8 2-2 5-3 8-3h266c6 0 11 5 11 11v160h21zM427 21h-22v96c0 6-4 11-10 11-6 0-11-5-11-11V21h-21v75c0 6-5 11-11 11-6 0-11-5-11-11V21h-21v43c0 6-5 11-11 11-6 0-10-5-10-11V21H181v75c0 5-3 9-8 10-5 1-10-1-12-5l-40-80H85v150h342zm21 171H64v64c0 12 10 21 21 21h107c11 0 21 6 27 14 6 9 7 20 3 30-6 15-9 30-9 46v81c0 24 19 43 43 43 24 0 43-19 43-43v-81c0-16-3-31-9-46-4-10-3-21 3-30 6-8 16-14 27-14h107c11 0 21-9 21-21zM277 448c0-12-9-21-21-21-12 0-21 9-21 21 0 12 9 21 21 21 12 0 21-9 21-21z"/><glyph unicode="&#108;" d="M480 469H32c-18 0-32-14-32-32V160c0-18 14-32 32-32h32V28l1e2 1e2h316c18 0 32 14 32 32v277c0 18-14 32-32 32zm11-309c0-6-5-11-11-11H156L85 79v70H32c-6 0-11 5-11 11v277c0 6 5 11 11 11h448c6 0 11-5 11-11zM192 299c0-12-10-22-21-22-12 0-22 10-22 22 0 11 10 21 22 21 11 0 21-10 21-21zm171 0c0-12-10-22-22-22-11 0-21 10-21 22 0 11 10 21 21 21 12 0 22-10 22-21zm-86 0c0-12-9-22-21-22-12 0-21 10-21 22 0 11 9 21 21 21 12 0 21-10 21-21z"/><glyph unicode="&#109;" d="M321 388c-24 0-50-11-65-36-14 24-40 35-64 35-37 0-75-27-75-80 0-92 128-166 134-169 1-1 3-2 5-2 2 0 4 1 6 2 5 4 133 90 133 175 0 49-37 75-74 75zm-65-228c-25 15-117 77-117 147 0 41 28 59 53 59 21 0 48-12 53-48 1-5 6-9 11-9 5 0 10 4 11 9 5 36 32 49 54 49 25 0 52-17 52-54 0-65-93-136-117-153zm0 328C115 488 0 394 0 277c0-55 25-106 71-145L20 29c-3-4-2-9 1-12 2-2 5-3 8-3 2 0 3 0 5 1l137 63c27-7 56-11 85-11 141 0 256 94 256 210 0 117-115 211-256 211zm0-4e2c-29 0-56 4-83 12-2 1-5 1-7-1L52 47l42 83c2 4 1 10-3 13-45 36-70 83-70 134 0 105 106 190 235 190 129 0 235-85 235-190 0-104-106-189-235-189z"/><glyph unicode="&#110;" d="M168 430l45 46V352c0-6 5-11 11-11 6 0 11 5 11 11v124l45-46c3-2 5-3 8-3 3 0 5 1 8 3 4 4 4 11 0 15l-64 64c-1 1-3 2-4 2-3 1-5 1-8 0-1 0-3-1-4-2l-64-64c-4-4-4-11 0-15 5-4 11-4 16 0zm333 18h-74c-5 0-10-3-11-8l-28-120H11c-4 0-7-2-9-4-2-3-3-7-1-10l64-192c1-4 5-7 10-7h263l-5-22H107c-24 0-43-19-43-42 0-24 19-43 43-43 23 0 42 19 42 43 0 7-2 15-6 21h162c-4-6-6-14-6-21 0-24 19-43 42-43 24 0 43 19 43 43 0 19-13 35-30 40l7 29c1 2 2 3 2 5 0 1 0 1 0 1l72 309h66c6 0 11 4 11 10 0 6-5 11-11 11zM82 128 25 299h358l-40-171zm46-85c0-12-10-22-21-22-12 0-22 10-22 22 0 11 10 21 22 21 11 0 21-10 21-21zm235 0c0-12-10-22-22-22-11 0-21 10-21 22 0 11 10 21 21 21 12 0 22-10 22-21z"/><glyph unicode="&#111;" d="M216 344c1-1 3-1 4-2 1 0 3-1 4-1 1 0 3 1 4 1 1 1 3 1 4 2l64 64c4 5 4 11 0 16-5 4-11 4-16 0l-45-46v123c0 6-5 11-11 11-6 0-11-5-11-11V378l-45 46c-5 4-11 4-16 0-4-5-4-11 0-16zm285 104h-74c-5 0-10-3-11-8l-28-120H11c-4 0-7-2-9-4-2-3-3-7-1-10l64-192c1-4 5-7 10-7h263l-5-22H107c-24 0-43-19-43-42 0-24 19-43 43-43 23 0 42 19 42 43 0 7-2 15-6 21h162c-4-6-6-14-6-21 0-24 19-43 42-43 24 0 43 19 43 43 0 19-13 35-30 40l7 29c1 2 2 3 2 5 0 1 0 1 0 1l72 309h66c6 0 11 4 11 10 0 6-5 11-11 11zM82 128 25 299h358l-40-171zm46-85c0-12-10-22-21-22-12 0-22 10-22 22 0 11 10 21 22 21 11 0 21-10 21-21zm235 0c0-12-10-22-22-22-11 0-21 10-21 22 0 11 10 21 21 21 12 0 22-10 22-21z"/><glyph unicode="&#112;" d="M469 270v167c0 42-33 75-74 75H117c-41 0-74-33-74-75V270L0 195v-56c0-24 19-43 43-43h52c-8-24-23-52-49-78L28 0h460l-23 19c-27 23-42 52-50 77h54c24 0 43 19 43 43v56zm-21 167V277H288v41c25 12 42 37 42 66 0 29-17 54-42 66v41h107c29 0 53-24 53-54zm-192 21c-4 0-7-1-11-1v34h22v-34c-4 0-7 1-11 1zm0-20c30 0 54-24 54-54 0-30-24-54-54-54-30 0-54 24-54 54 0 30 24 54 54 54zm0-128c4 0 7 1 11 1v-34h-22v34c4 0 7-1 11-1zM117 491h107v-41c-25-12-42-37-42-66 0-29 17-54 42-66v-41H64v160c0 30 24 54 53 54zM60 256h392l31-54H29zm67-117h258c1-15 5-44 20-75H105c16 32 21 60 22 75zM77 21c6 7 11 15 16 22h324c4-8 9-15 16-22zm392 96h-60c-1 9-2 16-3 22h63v21H43v-21h63c-1-6-2-13-4-22H43c-12 0-22 10-22 22v42h470v-42c0-12-10-22-22-22zM123 298c8 0 16 7 16 16 0 9-8 16-16 16-9 0-16-7-16-16 0-9 7-16 16-16zm0 21c3 0 5-2 5-5 0-3-2-5-5-5-3 0-6 2-6 5 0 3 3 5 6 5zm304 139h-75v-64h75zm-22-43h-32v22h32z"/><glyph unicode="&#113;" d="M96 192c-29 0-53-24-53-53 0-30 24-54 53-54 29 0 53 24 53 54 0 29-24 53-53 53zm0-85c-18 0-32 14-32 32 0 17 14 32 32 32 18 0 32-15 32-32 0-18-14-32-32-32zm125-10c5-2 11 1 13 6l19 57h27l19-57c2-4 6-7 10-7 1 0 3 0 4 1 5 1 8 7 6 13l-21 64c-1 4-5 7-10 7h-43c-4 0-8-3-10-7l-21-64c-2-6 1-12 7-13zm-50 351h21V341h-21zm42 0h22V341h-22zm43 0h21V341h-21zm43 0h21V341h-21zm42 0h22V341h-22zm43-341h85v64h-85zm21 42h43v-21h-43zm32 86h-74v21h-22v43h11c29 0 53 24 53 53v139H128V352c0-29 24-53 53-53h11v-43h-21v-21H75c-42 0-75-34-75-75v-43c0-41 33-74 75-74h96V21h192v22h74c42 0 75 33 75 74v43c0 41-33 75-75 75zM149 352v117h235V352c0-18-14-32-32-32H181c-17 0-32 14-32 32zm64-53h107v-43H213zM75 64c-30 0-54 24-54 53v43c0 29 24 53 54 53h96V64zm266-21H192v192h149zm150 74c0-29-24-53-54-53h-74v149h74c30 0 54-24 54-53z"/><glyph unicode="&#114;" d="M277 245H128c-24 0-43-19-43-42 0-24 19-43 43-43 24 0 43 19 43 43 0 7-3 15-6 21h76c-4-6-6-14-6-21 0-24 19-43 42-43 24 0 43 19 43 43 0 23-19 42-43 42zm-128-42c0-12-9-22-21-22-12 0-21 10-21 22 0 11 9 21 21 21 12 0 21-10 21-21zm128-22c-11 0-21 10-21 22 0 11 10 21 21 21 12 0 22-10 22-21 0-12-10-22-22-22zm225 108c-6 4-14 5-21 2l-97-40v58c0 18-14 32-32 32h-11v54c0 6 5 10 11 10h34c4-12 16-21 30-21h64c18 0 32 14 32 32 0 18-14 32-32 32h-64c-14 0-26-9-30-21h-34c-18 0-32-15-32-32v-54h-64v32c0 18-14 32-32 32H11c-6 0-11-4-11-10 0-6 5-11 11-11h213c6 0 11-5 11-11v-32H53c-17 0-32-14-32-32V117c0-17 15-32 32-32h299c18 0 32 15 32 32v38l97-41c3-1 6-2 9-2 4 0 8 2 12 4 6 4 10 11 10 19v136c0 7-4 14-10 18zm-86 138h64c6 0 11-5 11-11 0-6-5-11-11-11h-64c-6 0-11 5-11 11 0 6 5 11 11 11zm-64-320H53c-6 0-10 4-10 10v192c0 6 4 11 10 11h299c6 0 11-5 11-11v-74c0 0 0 0 0 0v-64c0 0 0 0 0 0v-54c0-6-5-10-11-10zm139 28-1-1-106 44v50l106 44-5 9 6-10z"/><glyph unicode="&#115;" d="M405 171H107C48 171 0 219 0 277c0 6 5 11 11 11 6 0 10-5 10-11 0-47 39-85 86-85h298c47 0 86 38 86 85 0 6 4 11 10 11 6 0 11-5 11-11 0-58-48-106-107-106zm11 64H96c-6 0-11 4-11 10 0 6 5 11 11 11h320c6 0 11-5 11-11 0-6-5-10-11-10zm11-53h-22v159c0 83-67 150-149 150-82 0-149-67-149-150V182H85v159c0 94 77 171 171 171 94 0 171-77 171-171zM288 43h-64L203 0h106z"/><glyph unicode="&#116;" d="M384 0H128c-6 0-10 4-11 10L97 278c-43 5-76 41-76 85 0 47 40 87 86 87 10 0 19-2 28-6 15 41 62 68 121 68 56 0 95-23 119-69 9 4 20 7 30 7 46 0 86-40 86-87 0-44-33-80-76-85L395 10c-1-6-5-10-11-10zM138 21h236l21 268c0 5 5 10 10 10 36 0 64 28 64 64 0 38-34 65-64 65-10 0-20-3-29-8-3-2-6-3-9-2-3 1-5 3-7 6-20 46-53 67-104 67-55 0-97-26-104-64 0-4-3-7-6-8-3-2-7-1-10 1-9 5-19 8-29 8-30 0-64-27-64-65 0-36 28-64 64-64 5 0 10-5 10-10zm253 64H121c-6 0-10 5-10 11 0 6 4 11 10 11h270c6 0 10-5 10-11 0-6-4-11-10-11zm-188 0c-6 0-11 5-11 11v85c0 6 5 11 11 11 6 0 10-5 10-11V96c0-6-4-11-10-11zm53 0c-6 0-11 5-11 11v107c0 6 5 10 11 10 6 0 11-4 11-10V96c0-6-5-11-11-11zm53 0c-6 0-10 5-10 11v85c0 6 4 11 10 11 6 0 11-5 11-11V96c0-6-5-11-11-11z"/><glyph unicode="&#117;" d="M448 512H64c-35 0-64-29-64-64V64C0 29 29 0 64 0h384c35 0 64 29 64 64v384c0 35-29 64-64 64zm43-448c0-24-19-43-43-43H64c-24 0-43 19-43 43v384c0 24 19 43 43 43h384c24 0 43-19 43-43zM256 448c-106 0-192-86-192-192 0-106 86-192 192-192 106 0 192 86 192 192 0 106-86 192-192 192zm0-363c-94 0-171 77-171 171 0 94 77 171 171 171 94 0 171-77 171-171 0-94-77-171-171-171zm64 182h-53v96c0 6-5 10-11 10-6 0-11-4-11-10V245h75c6 0 11 5 11 11 0 6-5 11-11 11z"/><glyph unicode="&#118;" d="M267 192c-3 0-6 1-8 3L88 366c-3 3-4 7-2 11 2 4 6 7 10 7h341c5 0 9-3 10-7 2-4 1-8-2-11L274 195c-2-2-5-3-7-3zM122 363l145-145 145 145zM267 0c-6 0-11 5-11 11v192c0 6 5 10 11 10 6 0 10-4 10-10V11c0-6-4-11-10-11zm85 0H181c-6 0-10 5-10 11 0 6 4 10 10 10h171c6 0 11-4 11-10 0-6-5-11-11-11zM152 366l-55 56c-11 10-24 15-38 15H0v22h59c20 0 39-8 53-22l56-56zm285-46c-13 0-27 4-39 11l12 18c8-5 17-8 27-8 30 0 54 24 54 54 0 29-24 53-54 53-29 0-53-24-53-53 0-6 1-12 3-18l-20-7c-3 8-4 16-4 25 0 41 33 74 74 74 41 0 75-33 75-74 0-41-34-75-75-75z"/><glyph unicode="&#119;" d="M373 0H117c-5 0-10 4-10 10L85 351c0 3 1 6 3 8 2 2 5 4 8 4h299c3 0 5-2 7-4 2-2 3-5 3-8L384 10c0-6-5-10-11-10zM127 21h236l20 320H107zm289 320H75c-6 0-11 5-11 11v85c0 6 5 11 11 11h341c6 0 11-5 11-11v-85c0-6-5-11-11-11zM85 363h320v64H85zm310 64c0 0 0 0 0 0H96c-3 0-7 1-9 4-2 3-2 6-1 10l21 64c2 4 6 7 10 7h256c5 0 9-3 10-7l21-62c1-2 2-4 2-6 0-6-5-10-11-10zm-284 21h269l-14 43H125zm278-192H101c-6 0-10 5-10 11 0 6 4 10 10 10h288c6 0 11-4 11-10 0-6-5-11-11-11zM109 149h272v-21H109zm168 43h-64c-6 0-10 5-10 11 0 6 4 10 10 10h64c6 0 11-4 11-10 0-6-5-11-11-11z"/><glyph unicode="&#120;" d="M469 469H43c-24 0-43-20-43-44V109c0-25 19-45 43-45h202V43H107c-6 0-11-5-11-11 0-6 5-11 11-11h298c6 0 11 5 11 11 0 6-5 11-11 11H267v21h202c24 0 43 20 43 45v316c0 24-19 44-43 44zM43 448h426c12 0 22-10 22-23V171H21v254c0 13 10 23 22 23zM469 85H43c-12 0-22 11-22 24v40h470v-40c0-13-10-24-22-24zm-192 32c0-11-9-21-21-21-12 0-21 10-21 21 0 12 9 22 21 22 12 0 21-10 21-22z"/><glyph unicode="&#121;" d="M469 469H43c-24 0-43-20-43-44V109c0-25 19-45 43-45h202V43H107c-6 0-11-5-11-11 0-6 5-11 11-11h298c6 0 11 5 11 11 0 6-5 11-11 11H267v21h202c24 0 43 20 43 45v316c0 24-19 44-43 44zM43 448h426c12 0 22-10 22-23V171H21v254c0 13 10 23 22 23zM469 85H43c-12 0-22 11-22 24v40h470v-40c0-13-10-24-22-24zm-192 32c0-11-9-21-21-21-12 0-21 10-21 21 0 12 9 22 21 22 12 0 21-10 21-22z"/><glyph unicode="&#122;" d="M331 469H160c-18 0-32-14-32-32V309c0-17 14-32 32-32h171c17 0 32 15 32 32v128c0 18-15 32-32 32zm10-160c0-6-4-10-10-10H160c-6 0-11 4-11 10v128c0 6 5 11 11 11h171c6 0 10-5 10-11zm-10-53h-64c-6 0-11-5-11-11 0-6 5-10 11-10h64c6 0 10 4 10 10 0 6-4 11-10 11zM509 61l-46 46c27 2 49 25 49 53 0 29-24 53-53 53h-54v224c0 42-33 75-74 75H160c-41 0-75-33-75-75V181c0-17 15-32 32-32h256c18 0 32 15 32 32v11h54c17 0 32-14 32-32 0-18-15-32-32-32H75c-3 0-6-1-8-3L3 61c-1-1-2-2-2-4-1-1-1-2-1-4V11C0 5 5 0 11 0h490c6 0 11 5 11 11v42c0 2 0 3-1 4 0 2-1 3-2 4zM384 181c0-6-5-10-11-10H117c-6 0-10 4-10 10v256c0 30 24 54 53 54h171c29 0 53-24 53-54zM79 107h354l43-43H36zM21 21v22h470V21zm118 64c0-6-5-10-11-10-6 0-11 4-11 10 0 6 5 11 11 11 6 0 11-5 11-11zm64 0c0-6-5-10-11-10-6 0-11 4-11 10 0 6 5 11 11 11 6 0 11-5 11-11zm64 0c0-6-5-10-11-10-6 0-11 4-11 10 0 6 5 11 11 11 6 0 11-5 11-11zm64 0c0-6-5-10-11-10-6 0-11 4-11 10 0 6 5 11 11 11 6 0 11-5 11-11zm64 0c0-6-5-10-11-10-6 0-11 4-11 10 0 6 5 11 11 11 6 0 11-5 11-11z"/><glyph unicode="&#65;" d="M21 331v10h256v139c0 18-13 32-30 32H30c-16 0-30-14-30-32V331c0-18 14-32 30-32h98v21H30c-5 0-9 5-9 11zm0 149c0 6 4 11 9 11h217c5 0 9-5 9-11V363H21zm32-203c-6 0-10-4-10-10 0-6 4-11 10-11h75v21zm414 43H194c-25 0-45-22-45-49V92c0-27 20-49 45-49h126V21h-85c-6 0-11-4-11-10 0-6 5-11 11-11h188c6 0 11 5 11 11 0 6-5 10-11 10h-82v22h126c25 0 45 22 45 49v179c0 27-20 49-45 49zm-273-21h273c13 0 24-13 24-28V128H171v143c0 15 10 28 23 28zM467 64H194c-13 0-23 12-23 28v15h320V92c0-16-11-28-24-28zM341 85c0-6-4-10-10-10-6 0-11 4-11 10 0 6 5 11 11 11 6 0 10-5 10-11z"/><glyph unicode="&#66;" d="M509 472c-18 17-68 19-82 19-15 0-65-2-83-19-2-2-3-5-3-8V27c0-3 1-6 3-8 18-18 68-19 83-19 14 0 64 1 82 19 2 2 3 5 3 8v437c0 3-1 6-3 8zM491 32c-10-6-33-11-64-11-32 0-55 5-64 11v427c9 5 32 10 64 10 31 0 54-5 64-10zm-173 92-46 61c-13 18-34 28-57 28H105c-23 0-44-10-57-28L2 124v0c-1-2-2-4-2-7V53C0 24 24 0 53 0h214c29 0 53 24 53 53v64c0 3-1 5-2 7zM65 172c10 13 24 20 40 20h110c16 0 31-7 40-20l43-58c-1-16-15-29-31-29H53c-16 0-30 13-31 29zM299 53c0-17-15-32-32-32H53c-17 0-32 15-32 32v22c9-7 20-11 32-11h214c12 0 23 4 32 11zm74 326c0-30 24-54 54-54 29 0 53 24 53 54 0 29-24 53-53 53-30 0-54-24-54-53zm86 0c0-18-15-32-32-32-18 0-32 14-32 32 0 17 14 32 32 32 17 0 32-15 32-32zm-43-86c0-11-10-21-21-21-12 0-22 10-22 21 0 12 10 22 22 22 11 0 21-10 21-22zm64 0c0-11-10-21-21-21-12 0-22 10-22 21 0 12 10 22 22 22 11 0 21-10 21-22z"/><glyph unicode="&#67;" d="M310 128c-4 0-7-2-10-5l-12-18-23 39c-4 7-14 7-18 0l-23-39-12 18c-3 3-6 5-10 5-3 0-7-2-9-5-5-10-33-61-33-80 0-24 19-43 43-43h106c24 0 43 19 43 43 0 19-28 70-33 80-2 3-6 5-9 5zm-1-107H203c-12 0-22 10-22 22 0 7 11 31 23 54l11-18c2-3 6-4 9-4 4 0 7 2 9 5l23 38 23-38c2-3 5-5 9-5 3 0 7 1 9 4l11 18c12-23 23-47 23-54 0-12-10-22-22-22zm150 391h-32v36h10c6 0 11 5 11 11 0 6-5 10-11 10H308c-5 25-26 43-52 43-26 0-47-18-52-43H75c-6 0-11-4-11-10 0-6 5-11 11-11h10v-43H53c-6 0-10-4-10-10 0-6 4-11 10-11h32V224c0-29 24-53 54-53h234c30 0 54 24 54 53v167h32c6 0 10 5 10 11 0 6-4 10-10 10zm-203 79c14 0 26-9 30-22h-60c4 13 16 22 30 22zm149-267c0-18-14-32-32-32H139c-18 0-32 14-32 32v224h298z"/><glyph unicode="&#68;" d="M466 451c4 4 4 11 0 15-4 4-11 4-15 0L348 363H128v32c0 6-5 10-11 10H53c-6 0-10-4-10-10v-32H11c-6 0-11-5-11-11v-64c0-6 5-11 11-11h32V53c0-6 4-10 10-10h224V11c0-6 5-11 11-11h64c6 0 11 5 11 11v32h32c6 0 10 4 10 10v64c0 6-4 11-10 11h-32v220zM64 384h43v-21H64zm-43-85v42h320V128h-42v160c0 1-1 3-1 4-1 3-3 5-6 6-1 0-3 1-4 1zm107-22h134L128 143zm149-15V128H143zm22-241v22h42V21zm85 86V64H64v213h43V117c0-1 0-2 0-4 2-2 4-4 6-6 2 0 3 0 4 0z"/><glyph unicode="&#69;" d="M62 108l3-1h382l3 1c39 26 62 69 62 116 0 76-62 139-139 139-20 0-40-5-58-14-15 7-31 12-48 13v23c30 5 53 31 53 63 0 35-29 64-64 64-35 0-64-29-64-64 0-32 23-58 53-63v-23c-17-1-33-6-48-13-18 9-38 14-58 14C62 363 0 3e2.0 224c0-47 23-90 62-116zm194 383c20 0 36-14 41-32h-82c5 18 21 32 41 32zm-41-54h82c-5-18-21-32-41-32-20 0-36 14-41 32zm-76-96c12 0 24-2 35-5-34-26-57-66-57-112 0-16 3-32 8-47 2-4 6-7 10-7 2 0 3 1 4 1 6 2 8 8 6 14-4 12-6 25-6 39 0 65 52 117 117 117 65 0 117-52 117-117 0-13-2-27-6-39-2-6 1-12 6-14 6-2 12 1 14 7 5 15 8 30 8 46 0 46-23 86-57 112 11 3 23 5 35 5 65 0 118-52 118-117 0-38-19-74-50-96H71c-31 22-50 58-50 96 0 65 53 117 118 117zM448 85H64c-28 0-42-21-42-42C22 21 36 0 64 0h384c28 0 42 21 42 43 0 21-14 42-42 42zm0-64H64c-16 0-21 12-21 22 0 10 5 21 21 21h384c16 0 21-12 21-21 0-10-5-22-21-22z"/><glyph unicode="&#70;" d="M467 330c0 0 0 1 0 1 0 1-1 2-1 3-17 101-104 178-210 178-106 0-193-77-210-178 0-1-1-2-1-3 0 0 0-1 0-1-1-10-2-21-2-31v-54c0-61 47-111 106-117V32c0-6 5-11 11-11 6 0 11 5 11 11v117h-11c-53 0-96 43-96 96v54c0 7 1 14 1 21 44 5 84 37 84 96 0 6-4 11-10 11-6 0-11-5-11-11 0-47-31-68-59-73 20 84 96 148 187 148 91 0 167-64 187-148-28 5-59 26-59 73 0 6-5 11-11 11-6 0-10-5-10-11 0-59 41-91 84-96 0-7 1-14 1-21v-54c0-53-43-96-96-96h-11V32c0-6 5-11 11-11 6 0 11 5 11 11v96c59 6 106 56 106 117v54c0 10-1 21-2 31zM224 149c-6 0-11-4-11-10V32c0-6 5-11 11-11 6 0 11 5 11 11v107c0 6-5 10-11 10zm64 0c-6 0-11-4-11-10V32c0-6 5-11 11-11 6 0 11 5 11 11v107c0 6-5 10-11 10zm139 96c0 41-34 75-75 75-41 0-75-34-75-75 0-41 34-74 75-74 41 0 75 33 75 74zm-128 0c0 30 24 54 53 54 29 0 53-24 53-54 0-29-24-53-53-53-29 0-53 24-53 53zm-139 75c-41 0-75-34-75-75 0-41 34-74 75-74 41 0 75 33 75 74 0 41-34 75-75 75zm0-128c-29 0-53 24-53 53 0 30 24 54 53 54 29 0 53-24 53-54 0-29-24-53-53-53zm115-4-9 19c-4 8-16 8-20 0l-10-21c-2-3-2-7 0-10 2-3 6-5 9-5h22c0 0 0 0 0 0 6 0 11 4 11 10 0 3-1 5-3 7z"/><glyph unicode="&#71;" d="M256 512C115 512 0 397 0 256 0 115 115 0 256 0c141 0 256 115 256 256 0 141-115 256-256 256zm0-491C127 21 21 127 21 256c0 129 106 235 235 235 129 0 235-106 235-235 0-129-106-235-235-235zm136 371c-4 4-11 4-15 0l-99-99c-7 3-14 6-22 6-24 0-43-19-43-43 0-24 19-43 43-43 24 0 43 19 43 43 0 8-3 15-6 22l99 99c4 4 4 11 0 15zM256 235c-12 0-21 9-21 21 0 12 9 21 21 21 12 0 21-9 21-21 0-12-9-21-21-21zm-149 21c0 6-5 11-11 11H53c-6 0-10-5-10-11 0-6 4-11 10-11h43c6 0 11 5 11 11zm-3-51-39-17c-6-2-8-8-6-14 2-4 6-6 10-6 1 0 3 0 4 1l39 16c6 2 8 8 6 14-2 5-8 8-14 6zm343-17-39 17c-6 2-12-1-14-6-2-6 0-12 6-14l39-16c1-1 3-1 4-1 4 0 8 2 10 6 2 6 0 12-6 14zm12 79h-43c-6 0-11-5-11-11 0-6 5-11 11-11h43c6 0 10 5 10 11 0 6-4 11-10 11zm-65 46c2-4 6-6 10-6 1 0 3 0 4 0l39 17c6 2 8 8 6 14-2 5-8 8-14 5l-39-16c-6-2-8-8-6-14zm-81 81c1-1 3-1 4-1 4 0 8 3 10 7l16 39c3 6 0 12-5 14-6 2-12 0-14-6l-17-39c-2-6 1-12 6-14zm-57 11c6 0 11 5 11 11v43c0 6-5 10-11 10-6 0-11-4-11-10v-43c0-6 5-11 11-11zm-71-5c2-4 6-7 10-7 1 0 3 0 4 1 5 2 8 8 6 14l-17 39c-2 6-8 8-14 6-5-2-8-8-5-14zm-35-23-30 30c-4 4-11 4-15 0-4-4-4-11 0-15l30-30c2-2 5-4 8-4 3 0 5 2 7 4 5 4 5 10 0 15zm-85-53 39-17c1 0 3 0 4 0 4 0 8 2 10 6 2 6 0 12-6 14l-39 16c-6 3-12 0-14-5-2-6 0-12 6-14zm287-153H160c-6 0-11-5-11-11V96c0-6 5-11 11-11h192c6 0 11 5 11 11v64c0 6-5 11-11 11zm-11-64H171v42h170z"/><glyph unicode="&#72;" d="M256 491c-120 0-213-43-213-96V117c0-54 93-96 213-96 120 0 213 42 213 96v278c0 53-93 96-213 96zm192-278c0-44-101-74-192-74-91 0-192 30-192 74v54c34-32 106-54 192-54 86 0 158 22 192 54zm0 96c0-44-101-74-192-74-91 0-192 30-192 74v43c34-32 106-53 192-53 86 0 158 21 192 53zM256 469c91 0 192-30 192-74 0-44-101-75-192-75-91 0-192 31-192 75 0 44 101 74 192 74zm0-426c-91 0-192 30-192 74v54c34-32 106-54 192-54 86 0 158 22 192 54v-54c0-44-101-74-192-74z"/><glyph unicode="&#73;" d="M171 363c-6 0-11-5-11-11V85c0-6 5-10 11-10 6 0 10 4 10 10v267c0 6-4 11-10 11zm85 0c-6 0-11-5-11-11V85c0-6 5-10 11-10 6 0 11 4 11 10v267c0 6-5 11-11 11zm85 0c-6 0-10-5-10-11V85c0-6 4-10 10-10 6 0 11 4 11 10v267c0 6-5 11-11 11zm171 74H373v64H139v-64H0v-21h75V0h362v416h75zm-352 43h192v-43H160zM416 21H96v395h320z"/><glyph unicode="&#74;" d="M469 405c-6 0-10-4-10-10 0-6 4-11 10-11 12 0 22-10 22-21V43c0-12-10-22-22-22H43c-12 0-22 10-22 22v21h64v277H21v22c0 11 10 21 22 21h213c6 0 11 5 11 11 0 6-5 10-11 10H43c-24 0-43-19-43-42V43C0 19 19 0 43 0h426c24 0 43 19 43 43v320c0 23-19 42-43 42zM21 235h43v-64H21zm0-150v64h43V85zm43 235v-64H21v64zm149 21c6 0 11 5 11 11 0 6-5 11-11 11H107V43h362v320h-42c-6 0-11-5-11-11 0-6 5-11 11-11h21V64H128v277zm178 142-177-176-21-67-19-19c-4-4-4-11 0-15 2-2 5-3 7-3 3 0 6 1 8 3l19 19 67 21 1 2 115 115c0 0 0 0 0 0 0 0 0 0 0 0l75 75c17 17 17 44 0 60-16 17-44 17-60 0l-15-15c0 0 0 0 0 0 0 0 0 0 0 0zm-8-98-30 30 46 46 30-30zM269 271l-30 30 99 99 30-30zm-41 10 21-21-30-9zm223 202c9-8 9-22 0-30l-7-7-30 30 7 7c8 8 22 8 30 0z"/><glyph unicode="&#75;" d="M459 512H309c-6 0-10-5-10-11V11c0-6 4-11 10-11h150c6 0 10 5 10 11v490c0 6-4 11-10 11zM448 21H320v64h43v22h-43v42h43v22h-43v42h43v22h-43v42h43v22h-43v42h43v22h-43v42h43v22h-43v64h128zM148 486c-4 6-14 6-18 0l-64-96c-1-2-2-4-2-6V75c0-30 24-54 53-54h43c29 0 53 24 53 54v309c0 2 0 4-1 6zm-9-141c3-3 6-6 10-8V149h-21v188c4 2 8 5 11 8zm-32-196H85v188c7-4 14-6 22-6zm-22-21h107v-21H85zm86 21v182c7 0 15 2 21 6V149zm-32 312 15-24h-31zm-54-80 24 35h60l23-35v-8c0-11-10-21-21-21-12 0-22 10-22 21 0 6-4 11-10 11-6 0-11-5-11-11 0-11-10-21-21-21-12 0-22 10-22 21zm75-338h-43c-17 0-32 14-32 32v10h107V75c0-18-14-32-32-32z"/><glyph unicode="&#76;" d="M7 427c0-24 19-43 43-43h32c17 0 33 9 42 22 10-13 26-22 43-22h32c24 0 43 19 43 43 6 0 10 4 10 10v22c0 6-4 10-10 10-1 0-3 0-4 0-8 25-32 43-60 43H71c-28 0-52-18-60-43-2 0-3 0-4 0-6 0-11-4-11-10v-22c0-6 5-10 11-10zm213 21v-21c0-12-9-22-21-22h-32c-18 0-32 15-32 32v54h43c23 0 42-19 42-43zm-192 0c0 24 20 43 43 43h43v-54c0-17-15-32-32-32H50c-12 0-22 10-22 22zm438-135v39c0 6-5 11-11 11h-12c-5 24-26 42-52 42h-37c-38 0-70-31-70-69V155c0-74-59-134-133-134C78 21 18 81 18 155v80c0 38 29 69 65 74 5-18 22-32 41-32 24 0 43 19 43 43 0 24-19 43-43 43-20 0-36-14-41-33-48-4-87-46-87-95v-80C-4 69 66 0 151 0c85 0 155 69 155 155v181c0 26 21 48 48 48h37c14 0 26-9 30-21h-9c-5 0-10-5-10-11v-39c-25-12-43-38-43-68V43c0-24 19-43 43-43h64c23 0 42 19 42 43v202c0 30-17 56-42 68zm-342 28c12 0 22-9 22-21 0-12-10-21-22-21-11 0-21 9-21 21 0 12 10 21 21 21zm256-106h107V64H380zm43 85v21h21v-21zm11-21c26 0 47-19 52-43H382c4 24 26 43 52 43zm32-278h-64c-12 0-22 10-22 22h107c0-12-9-22-21-22z"/><glyph unicode="&#77;" d="M405 405h-96v86h32c6 0 11 4 11 10 0 6-5 11-11 11H192c-6 0-11-5-11-11 0-6 5-10 11-10h32v-86h-96c-6 0-11-4-11-10 0-6 5-11 11-11h53V181c0-49 33-89 75-95V11c0-6 5-11 11-11 6 0 10 5 10 11v75c42 6 75 46 75 95v203h53c6 0 11 5 11 11 0 6-5 10-11 10zm-160 86h43v-86h-43zm86-310c0-41-29-74-64-74-36 0-64 33-64 74v54h32c6 0 10 4 10 10 0 6-4 11-10 11h-32v21h32c6 0 10 5 10 11 0 6-4 11-10 11h-32v21h32c6 0 10 5 10 11 0 6-4 10-10 10h-32v43h128z"/><glyph unicode="&#78;" d="M235 139c1e2.0 181 81 181 181 0 1e2-81 181-181 181-1e2.0-182-81-182-181 0-1e2 82-181 182-181zm0 341c88 0 160-72 160-160 0-88-72-160-160-160-88 0-160 72-160 160 0 88 72 160 160 160zm166-326c89 89 91 232 7 324l8 8c4 4 4 11 0 15-4 4-11 4-15 0l-31-30c-4-4-4-11 0-15 3-2 5-3 8-3 3 0 6 1 8 3l7 7c75-84 73-213-7-294-81-80-211-83-294-7l7 7c4 4 4 11 0 15-4 4-11 4-15 0l-30-30c-4-4-4-11 0-15 2-2 5-3 7-3 3 0 6 1 8 3l8 8c39-36 87-56 136-61V63c-40-4-79-19-112-44L75 0h319l-25 19c-34 25-72 40-113 44v23c53 5 104 28 145 68zM145 21c27 14 58 22 90 22 31 0 62-8 90-22z"/><glyph unicode="&#79;" d="M331 512c-6 0-11-5-11-11 0 0 0 0 0 0V11c0-6 5-11 11-11 6 0 10 5 10 11v170h54c6 0 10 5 10 11 0 155-30 320-74 320zm10-309v274c18-33 42-130 43-274zm-96 309c-6 0-10-5-10-11V395c0-26-19-48-43-53v159c0 6-5 11-11 11-6 0-10-5-10-11V342c-25 5-43 27-43 53v106c0 6-5 11-11 11-6 0-10-5-10-11V395c0-38 28-69 64-74V11c0-6 4-11 10-11 6 0 11 5 11 11v310c36 5 64 36 64 74v106c0 6-5 11-11 11z"/><glyph unicode="&#80;" d="M158 158c-2 2-3 5-3 8 0 2 1 5 3 7 4 4 11 4 15 0 12-12 33-12 45 0 6 6 10 14 10 23 0 8-4 16-10 22-4 4-4 11 0 15 4 4 11 4 15 0 6-6 14-9 23-9 0 0 0 0 0 0 9 0 17 3 23 9 6 6 9 14 9 23 0 9-3 17-9 23-2 2-3 4-3 7 0 3 1 6 3 8 2 2 4 3 7 3 0 0 0 0 0 0 3 0 6-1 8-3 12-13 33-13 45 0 12 12 12 32 0 45-2 2-3 5-3 8 0 2 1 5 3 7 4 4 11 4 15 0 12-12 33-12 45 0 6 6 10 14 10 23 0 8-4 16-10 22-4 4-4 11 0 15 4 5 11 5 15 0 5-4 11-4 15 0 5 5 5 11 1 15-13 13-33 13-46 0-12-12-12-32 0-45 2-2 3-4 3-7 0-3-1-6-3-8-4-4-11-4-15 0-12 12-33 12-45 0-6-6-9-14-9-22 0-9 3-17 9-23 4-4 4-11 0-15-4-4-11-4-15 0-6 6-14 9-23 9 0 0 0 0 0 0-8 0-16-3-22-9-7-6-10-14-10-23 0-8 3-16 10-22 2-2 3-5 3-8 0-3-1-6-3-8-2-2-5-3-8-3-3 0-6 1-8 3-12 13-33 13-45 0-12-12-12-32 0-45 4-4 4-11 0-15-4-4-11-4-15 0-12 12-33 12-45 0-6-6-10-14-10-23 0-8 4-16 10-22 4-4 4-11 0-15-4-4-11-4-15 0-13 12-33 12-45 0-13-13-13-33 0-45 2-3 4-4 7-4 3 0 6 1 8 4 4 4 4 10 0 15-5 4-5 11 0 15 4 4 11 4 15 0 12-13 32-13 45 0 12 12 12 32 0 45zm322 235c4 24-2 49-20 67-14 14-33 22-53 22-5 0-9-1-13-2-48 40-1e2 41-138 2L30 256c-32-31-44-87 2-137-4-24 2-49 20-67 14-14 33-22 53-22 5 0 9 1 14 2 20-20 44-30 70-30 0 0 0 0 0 0 25 0 49 10 67 28l226 226c32 32 44 87-2 137zM45 241l226 226c28 28 63 29 99 5-6-4-11-8-16-12L52 158c-5-5-9-10-12-16-27 37-19 76 5 99zM67 67c-20 21-20 55 0 76l302 302c10 10 24 15 38 15 14 0 27-5 38-15 20-21 20-55 0-76L143 67c-10-10-24-15-38-15-14 0-27 5-38 15zm4e2 204L241 45c-14-14-33-22-52-22-17 0-33 6-47 17 6 3 11 7 16 12l302 302c5 5 9 10 12 16 29-40 17-77-5-99z"/><glyph unicode="&#81;" d="M384 267c-6 0-11-5-11-11V21H21v427h288c6 0 11 5 11 11 0 6-5 10-11 10H0V0h395v256c0 6-5 11-11 11zm126 224c-6 13-18 21-31 21-8 0-16-3-22-10l-30-30c0 0 0 0 0 0 0 0 0 0 0 0L253 299c0-1-1-2-2-3l-30-60c-2-5-1-10 2-13 2-2 5-3 8-3 1 0 3 0 5 1l60 30c1 1 2 2 3 2l203 204c10 10 13 22 8 34zM285 270l-30-15 15 30 164 165 16-16zm202 202-22-22-15 15 22 22c2 3 5 4 7 4 5 0 9-4 11-8 2-4 1-7-3-11z"/><glyph unicode="&#82;" d="M469 427H43c-24 0-43-19-43-43V128c0-24 19-43 43-43h426c24 0 43 19 43 43v256c0 24-19 43-43 43zm22-299c0-12-10-21-22-21H43c-12 0-22 9-22 21v256c0 12 10 21 22 21h426c12 0 22-9 22-21zm-45 208c-3 5-10 7-14 4L256 226 80 340c-4 3-11 1-14-4-3-4-2-11 3-14l187-121 187 121c5 3 6 10 3 14zM154 233l-96-64c-5-3-6-10-3-15 2-3 6-5 9-5 2 0 4 1 6 2l96 64c5 3 6 10 3 15-3 5-10 6-15 3zm204 0c-5 3-12 2-15-3-3-5-2-12 3-15l96-64c2-1 4-2 6-2 3 0 7 2 9 5 3 5 2 12-3 15z"/><glyph unicode="&#83;" d="M448 11c0 0 0 0 0 1v5e2H43V0h394c0 0 0 0 1 0h10v10c0 0 0 0 0 1zm-33 480-51-63c-6-8-15-12-25-12H151c-9 0-19 4-25 12l-50 63zM64 471l46-57c10-12 25-19 41-19h84V96H107c-4 0-7-2-9-4L64 44zM74 21l38 54h267l38-54zm319 71c-2 2-6 4-9 4H256v299h83c17 0 32 7 42 19l46 57V44z"/><glyph unicode="&#84;" d="M373 341h-32v75c0 53-38 96-85 96-47 0-85-43-85-96v-75h-32c-6 0-11-4-11-10 0-6 5-11 11-11h32V139c0-40 21-75 53-89V11c0-6 5-11 11-11h42c6 0 11 5 11 11v39c32 14 53 49 53 89v181h32c6 0 11 5 11 11 0 6-5 10-11 10zm-181 75c0 41 29 75 64 75 35 0 64-34 64-75v-75H192zm128-277c0-33-19-63-46-72-4-1-7-6-7-10V21h-22v36c0 4-3 9-7 10-27 9-46 39-46 72v32h32c6 0 11 4 11 10 0 6-5 11-11 11h-32v21h32c6 0 11 5 11 11 0 6-5 11-11 11h-32v21h32c6 0 11 5 11 11 0 6-5 10-11 10h-32v43h128z"/><glyph unicode="&#85;" d="M117 427c-17 0-32-15-32-32V149H32c-6 0-11-4-11-10 0-6 5-11 11-11h53V43H11C5 43 0 38 0 32c0-6 5-11 11-11h128c6 0 10 5 10 11v363c0 17-14 32-32 32zM107 43v352c0 6 4 10 10 10 6 0 11-4 11-10V43zm401 147-39 29v112c0 29-24 53-53 53h-43c-111 0-202-91-202-203v-32c0 0 0 0 0 0V64c0-6 4-11 10-11h46c13-19 36-32 61-32 25 0 48 13 61 32h40c8-18 27-32 48-32 22 0 41 14 49 32h15c6 0 11 5 11 11v117c0 4-2 7-4 9zM192 75v70l85 85 3-3c3-2 5-3 8-3 3 0 5 1 8 3 4 4 4 11 0 15l-22 22c-4 4-11 4-15 0-4-5-4-11 0-16l3-3-70-70v6c0 1e2 81 182 181 182h43c18 0 32-15 32-32V224h-50l18 72c1 6-2 12-8 13-6 1-12-2-13-8l-19-77h-35c-3 0-5-1-7-3l-51-51c-39-2-70-34-70-74 0-7 1-15 3-21zm96-32c-29 0-53 24-53 53 0 29 24 53 53 53 29 0 53-24 53-53 0-29-24-53-53-53zm149 0c-17 0-32 14-32 32 0 17 15 32 32 32 18 0 32-15 32-32 0-18-14-32-32-32zm54 32c0 29-24 53-54 53-29 0-53-24-53-53h-24c2 6 3 14 3 21 0 33-22 62-53 71l36 36h109l36-27z"/><glyph unicode="&#86;" d="M452 5e2c-4 2-8 1-12-2-23-24-55-37-88-37-38 0-74 17-98 47-4 5-13 5-17 0-24-30-60-47-98-47-34 0-65 13-89 37-3 3-7 4-11 2-4-2-7-5-7-10V174c0 0 0-1 0-2 1-5 24-119 210-172 1 0 2 0 3 0 1 0 2 0 3 0 187 53 210 167 210 172 1 1 1 2 1 2v316c0 5-3 8-7 10zm-15-325c-1-4-7-29-31-58-24-29-72-70-161-95-88 25-136 66-160 95-24 29-31 54-32 58v292c25-18 55-27 86-27 40 0 79 16 106 45 28-29 66-45 107-45 31 0 61 9 85 27zM288 395h-85v-86h-86v-85h86v-85h85v85h85v85h-85zm64-107v-43h-85v-85h-43v85h-85v43h85v85h43v-85z"/><glyph unicode="&#87;" d="M256 512c-59 0-107-48-107-107V139c0-6 5-11 11-11h85V11c0-6 5-11 11-11 6 0 11 5 11 11v117h85c6 0 11 5 11 11v266c0 59-48 107-107 107zm85-363H171v256c0 47 38 86 85 86 47 0 85-39 85-86zm-42 128v86c0 17-15 32-32 32-18 0-32-15-32-32 0-6-5-11-11-11-6 0-11 5-11 11v42c0 6-4 11-10 11-6 0-11-5-11-11v-42c0-18 14-32 32-32 18 0 32 14 32 32 0 6 5 10 11 10 6 0 10-4 10-10v-86c0-17 15-32 32-32 6 0 11 5 11 11 0 6-5 11-11 11-6 0-10 4-10 10z"/><glyph unicode="&#88;" d="M387 395 274 509c-2 2-4 3-7 3 0 0 0 0 0 0-3 0-6-1-8-3L145 395H0V0h512v395zm-120 91 90-91H175zM491 21H21v352h470zm-22 331H43V43h426zM64 331h384V203h-53c-6 0-11-5-11-11v-53h-32c-6 0-11-5-11-11V64h-37c-17 22-101 133-101 235 0 6-5 10-11 10-6 0-11-4-11-10C181 198 97 86 80 64H64zM384 64h-21v53h21zm-241 53h98c14-22 27-41 36-53H107c9 12 22 31 36 53zm12 22c14 26 28 57 37 89 9-32 23-63 37-89zm250-75v117h43V64z"/><glyph unicode="&#89;" d="M501 245c6 0 11 5 11 11 0 6-5 11-11 11H384v96h117c6 0 11 4 11 10 0 6-5 11-11 11H384v117c0 6-5 11-11 11-6 0-10-5-10-11V384h-96v117c0 6-5 11-11 11-6 0-11-5-11-11V384h-96v117c0 6-4 11-10 11-6 0-11-5-11-11V384H11c-6 0-11-5-11-11 0-6 5-10 11-10h117v-96H11c-6 0-11-5-11-11 0-6 5-11 11-11h117v-96H11c-6 0-11-4-11-10 0-6 5-11 11-11h117V11c0-6 5-11 11-11 6 0 10 5 10 11v117h96V11c0-6 5-11 11-11 6 0 11 5 11 11v117h96V11c0-6 4-11 10-11 6 0 11 5 11 11v117h117c6 0 11 5 11 11 0 6-5 10-11 10H384v96zM363 363v-96h-96v96zm-214 0h96v-96h-96zm0-214v96h96v-96zm214 0h-96v96h96z"/><glyph unicode="&#90;" d="M512 405v107H405v-43H107v43H0V405h53V107H0V0h107v43h298V0h107v107h-43v298zm-85 86h64v-64h-64zm-406 0h64v-64H21zM85 21H21v64h64zm406 0h-64v64h64zm-43 86h-43V64H107v43H75v298h32v43h298v-43h43z"/><glyph unicode="&#48;" d="M256 512C115 512 0 397 0 256 0 115 115 0 256 0c141 0 256 115 256 256 0 141-115 256-256 256zm0-491C127 21 21 127 21 256c0 129 106 235 235 235 129 0 235-106 235-235 0-129-106-235-235-235zm160 224c-6 0-11-4-11-10 0-83-67-150-149-150-82 0-149 67-149 150 0 6-5 10-11 10-6 0-11-4-11-10 0-94 77-171 171-171 94 0 171 77 171 171 0 6-5 10-11 10zm-299 43c6 0 11 5 11 11 0 17 14 32 32 32 18 0 32-15 32-32 0-6 5-11 11-11 6 0 10 5 10 11 0 29-24 53-53 53-29 0-53-24-53-53 0-6 4-11 10-11zm192 0c6 0 11 5 11 11 0 17 14 32 32 32 18 0 32-15 32-32 0-6 5-11 11-11 6 0 10 5 10 11 0 29-24 53-53 53-29 0-53-24-53-53 0-6 4-11 10-11z"/><glyph unicode="&#49;" d="M512 128c0 26-18 47-43 52v1c0 22-13 41-32 49v26c0 1e2-81 181-181 181-1e2.0-181-81-181-181v-23c-19-5-32-21-32-41v-12c-25-5-43-26-43-52 0-26 18-47 43-52V64c0-24 19-43 42-43h22c23 0 42 19 42 43v128c0 24-19 43-42 43H96v21c0 88 72 160 160 160 88 0 160-72 160-160v-21c-29 0-53-24-53-54V75c0-30 24-54 53-54 29 0 53 24 53 54v1c25 5 43 26 43 52zm-491 0c0 14 9 26 22 30V98c-13 4-22 16-22 30zm107 64V64c0-12-10-21-21-21H85c-11 0-21 9-21 21v128c0 12 10 21 21 21h22c11 0 21-9 21-21zM448 75c0-18-14-32-32-32-18 0-32 14-32 32v106c0 18 14 32 32 32 18 0 32-14 32-32zm21 23v60c13-4 22-16 22-30 0-14-9-26-22-30z"/><glyph unicode="&#50;" d="M437 224c-6 0-10-5-10-11V21H320v139H192V21H85v203c0 6-4 11-10 11-6 0-11-5-11-11V0h149v139h86V0h149v213c0 6-5 11-11 11zm72 18-253 242L3 242c-4-4-4-10 0-15 4-4 11-4 15 0l238 228 238-228c2-2 5-3 7-3 3 0 6 1 8 3 4 5 4 11 0 15zM341 427h64v-64c0-6 5-11 11-11 6 0 11 5 11 11v85h-86c-6 0-10-5-10-11 0-6 4-10 10-10z"/><glyph unicode="&#51;" d="M427 448H85V235h342zm-22-192H107v171h298zM355 85l-16 64H173l-16-64zm-165 43h132l6-21H184zm279 87v233c0 24-19 43-42 43H85c-23 0-42-19-42-43V204L0 56V43C0 19 19 0 43 0h426c24 0 43 19 43 43v10zM85 469h342c11 0 21-9 21-21V213H64v235c0 12 10 21 21 21zM61 192h393l33-128H25zM469 21H43c-12 0-22 10-22 22h470c0-12-10-22-22-22z"/><glyph unicode="&#52;" d="M219 127v12h21v64H112v-64h22v-12C66 115 30 76 25 11L24 0h302l-1 11c-5 66-40 104-106 116zM48 21c7 51 39 78 98 86l9 1v52h-21v21h85v-21h-21v-52l9-1c58-8 88-34 96-86zm433 481c-5 4-11 4-15 0l-50-50v47c0 4-2 7-5 9-2 2-6 3-9 1-34-11-70-35-102-68-63-62-90-135-67-172l-27-27c-4-4-4-11 0-15 2-2 5-3 7-3 3 0 6 1 8 3l27 27c8-5 19-8 30-8 32 0 75 19 118 55 3 3 4 8 3 12-2 4-6 7-10 7h-75l21 21h96c6 0 11 5 11 11 0 6-5 11-11 11h-74l21 21h85c4 0 8 2 10 5 28 49 30 90 8 113zm-166-76c25 25 53 46 79 58v-53l-28-28c0-1 0-1-1-1l-41-42c-1 0-1-1-1-1l-42-42c0 0-1 0-1-1l-31-31c-11 28 11 86 66 141zm42-127c-38-26-73-37-93-29l29 29zm1e2 106h-58l72 72c7-16 2-41-14-72z"/><glyph unicode="&#53;" d="M416 512H96c-29 0-53-24-53-53V53C43 24 67 0 96 0h320c29 0 53 24 53 53v406c0 29-24 53-53 53zm32-459c0-17-14-32-32-32H96c-18 0-32 15-32 32v406c0 17 14 32 32 32h320c18 0 32-15 32-32zm-169 0c0-11-9-21-21-21-12 0-22 10-22 21 0 12 10 22 22 22 12 0 21-10 21-22zm137 395H96c-6 0-11-5-11-11V96c0-6 5-11 11-11h320c6 0 11 5 11 11v341c0 6-5 11-11 11zm-11-341H107v320h298zM268 469c0-6-4-10-10-10-6 0-11 4-11 10 0 6 5 11 11 11 6 0 10-5 10-11z"/><glyph unicode="&#54;" d="M373 512H139c-30 0-54-24-54-53V53c0-29 24-53 54-53h234c30 0 54 24 54 53v406c0 29-24 53-54 53zM107 405h298V107H107zm32 86h234c18 0 32-15 32-32v-32H107v32c0 17 14 32 32 32zM373 21H139c-18 0-32 15-32 32v32h298V53c0-17-14-32-32-32zm-96 32c0-11-9-21-21-21-12 0-21 10-21 21 0 12 9 22 21 22 12 0 21-10 21-22zm-74 395h106c6 0 11 5 11 11 0 6-5 10-11 10H203c-6 0-11-4-11-10 0-6 5-11 11-11z"/><glyph unicode="&#55;" d="M171 256c-59 0-107-48-107-107 0-58 48-106 107-106 58 0 106 48 106 106 0 59-48 107-106 107zm0-192c-47 0-86 38-86 85 0 47 39 86 86 86 47 0 85-39 85-86 0-47-38-85-85-85zm0 149c-36 0-64-28-64-64 0-35 28-64 64-64 35 0 64 29 64 64 0 36-29 64-64 64zm0-106c-24 0-43 19-43 42 0 24 19 43 43 43 23 0 42-19 42-43 0-23-19-42-42-42zm245 362H245v22h-75c-9 13-25 21-42 21-29 0-53-24-53-53 0-30 24-54 53-54 17 0 33 9 42 22h75v21h171c29 0 53-24 53-53V64c0-24-19-43-42-43-24 0-43 19-43 43v171c0 23-19 42-43 42h-21v32c0 18-14 32-32 32H53c-17 0-32-14-32-32V53C21 24 45 0 75 0h192c29 0 53 24 53 53v203h21c12 0 22-10 22-21V64c0-35 28-64 64-64 35 0 64 29 64 64v331c0 41-34 74-75 74zm-288-42c-18 0-32 14-32 32 0 17 14 32 32 32 18 0 32-15 32-32 0-18-14-32-32-32zm96 21h-43v21h43zM53 320h235c6 0 11-5 11-11 0-6-5-10-11-10H53c-6 0-10 4-10 10 0 6 4 11 10 11zM267 21H75c-18 0-32 15-32 32v226c3-1 7-2 10-2h235c4 0 7 1 11 2V53c0-17-15-32-32-32zM139 459c0-6-5-11-11-11-6 0-11 5-11 11 0 6 5 10 11 10 6 0 11-4 11-10z"/><glyph unicode="&#56;" d="M373 512H139c-30 0-54-24-54-53V53c0-29 24-53 54-53h234c30 0 54 24 54 53v406c0 29-24 53-54 53zm32-459c0-17-14-32-32-32H139c-18 0-32 15-32 32v406c0 17 14 32 32 32h234c18 0 32-15 32-32zm-32 416H139c-6 0-11-4-11-10V288c0-6 5-11 11-11h234c6 0 11 5 11 11v171c0 6-5 10-11 10zm-10-170H149v149h214zm-107-43c-59 0-107-48-107-107 0-58 48-106 107-106 59 0 107 48 107 106 0 59-48 107-107 107zm0-192c-47 0-85 38-85 85 0 47 38 86 85 86 47 0 85-39 85-86 0-47-38-85-85-85zm0 149c-35 0-64-28-64-64 0-35 29-64 64-64 35 0 64 29 64 64 0 36-29 64-64 64zm0-106c-24 0-43 19-43 42 0 24 19 43 43 43 24 0 43-19 43-43 0-23-19-42-43-42z"/><glyph unicode="&#57;" d="M480 341c-14 0-26-9-30-21h-2c-24 0-43-19-43-43 0-23 19-42 43-42h2c3-9 10-16 19-20V64c0-24-19-43-42-43-24 0-43 19-43 43v352c0 24-19 43-43 43 0 29-24 53-53 53H53c-29 0-53-24-53-53V53C0 24 24 0 53 0h235c29 0 53 24 53 53v384c12 0 22-9 22-21V64c0-35 28-64 64-64 35 0 64 29 64 64v151c12 5 21 16 21 30v64c0 18-14 32-32 32zM21 405h299V107H21zm32 86h235c18 0 32-15 32-32v-32H21v32c0 17 15 32 32 32zM288 21H53c-17 0-32 15-32 32v32h299V53c0-17-14-32-32-32zm139 256c0 12 9 22 21 22v-43c-12 0-21 10-21 21zm64-32c0-6-5-10-11-10-6 0-11 4-11 10v64c0 6 5 11 11 11 6 0 11-5 11-11zM192 53c0-11-10-21-21-21-12 0-22 10-22 21 0 12 10 22 22 22 11 0 21-10 21-22zm-11 406c0-6-4-11-10-11-6 0-11 5-11 11 0 6 5 10 11 10 6 0 10-4 10-10z"/><glyph unicode="&#33;" d="M437 331c-12 0-24-3-35-9-2 5-5 9-9 14 0 1-1 2-2 2-24 32-60 55-1e2 64 5 7 8 15 8 25 0 23-19 42-43 42-24 0-43-19-43-42 0-10 3-18 8-25-40-9-76-32-1e2-64-1 0-2-1-2-2-19-26-31-57-33-90-14 3-33 14-33 63 0 39-26 54-42 54-6 0-11-5-11-11 0-6 5-11 11-11 6 0 21-5 21-32 0-64 30-81 54-84 2-34 13-66 34-93 2-2 5-4 8-4h256c3 0 6 2 8 4 12 16 21 33 27 52 6-2 12-3 18-3 41 0 75 34 75 75 0 41-34 75-75 75zm-77 10H152c27 27 63 43 104 43 41 0 77-16 104-43zm-125 86c0 11 9 21 21 21 12 0 21-10 21-21 0-12-9-22-21-22-12 0-21 10-21 22zm143-278H134c-18 26-27 55-27 86 0 31 10 61 27 85h244c17-24 27-54 27-85 0-31-9-60-27-86zm59 54c-4 0-9 0-13 2 2 9 3 19 3 30 0 24-6 47-15 68 8 4 16 6 25 6 30 0 54-24 54-53 0-29-24-53-54-53zm22-96H53c-6 0-10-5-10-11 0-6 4-11 10-11h43V64c0-6 5-11 11-11 6 0 10 5 10 11v21h299V64c0-6 5-11 11-11 6 0 10 5 10 11v21h22c6 0 10 5 10 11 0 6-4 11-10 11z"/><glyph unicode='"' d="M501 139H11c-6 0-11-5-11-11v-21c0-18 14-32 32-32h448c18 0 32 14 32 32v21c0 6-5 11-11 11zm-10-32c0-6-5-11-11-11H32c-6 0-11 5-11 11v10h470zM75 160h362c18 0 32 14 32 32v213c0 18-14 32-32 32H75c-18 0-32-14-32-32V192c0-18 14-32 32-32zM64 405c0 6 5 11 11 11h362c6 0 11-5 11-11V192c0-6-5-11-11-11H75c-6 0-11 5-11 11zm363-10H85V203h342zm-22-171H107v149h298z"/><glyph unicode="&#35;" d="M383 477c-48 0-102-27-127-88-25 61-79 88-127 88C67 477 0 432 0 333c0-73 42-150 126-227 62-57 122-92 125-94 1-1 3-1 5-1 2 0 4 0 5 1 3 2 63 37 125 94 84 77 126 154 126 227 0 99-67 144-129 144zM256 34C221 56 21 185 21 333c0 84 56 123 108 123 48 0 102-33 117-106 0-5 5-9 10-9 5 0 10 4 10 9 15 73 69 106 117 106 52 0 108-39 108-123 0-148-2e2-277-235-299z"/><glyph unicode="&#36;" d="M256 165l-68-67c-10-10-23-16-38-16-14 0-27 6-37 16l-15 15c-21 20-21 54 0 75l98 98c10 10 23 16 37 16 15 0 28-6 38-16l15-15c4-4 11-4 15 0 4 4 4 11 0 15l-15 15c-14 14-33 22-53 22-20 0-38-8-52-22l-98-98c-30-29-30-76 0-105l15-15c14-15 32-22 52-22 20 0 39 7 53 22l68 67c4 5 4 11 0 15-4 5-11 5-15 0zm173 249-15 15c-29 30-76 30-105 0l-68-67c-4-5-4-11 0-15 4-5 11-5 15 0l68 67c21 21 55 21 75 0l15-15c21-20 21-54 0-75l-98-98c-10-10-23-16-37-16-15 0-28 6-38 16-4 4-11 4-15 0-4-4-4-11 0-15 14-14 33-22 53-22 20 0 38 8 52 22l98 98c30 29 30 76 0 105z"/><glyph unicode="&#37;" d="M245 174v-57c0-6 5-10 11-10 6 0 11 4 11 10v57c6 3 10 10 10 18 0 12-9 21-21 21-12 0-21-9-21-21 0-8 4-15 10-18zm139 146v64c0 71-57 128-128 128-71 0-128-57-128-128v-64H64V0h384v320zm-235 64c0 59 48 107 107 107 59 0 107-48 107-107v-64H149zM427 21H85v278h342z"/><glyph unicode="&#38;" d="M245 174v-57c0-6 5-10 11-10 6 0 11 4 11 10v57c6 3 10 10 10 18 0 12-9 21-21 21-12 0-21-9-21-21 0-8 4-15 10-18zm139 146v64c0 71-57 128-128 128-71 0-128-57-128-128h21c0 59 48 107 107 107 59 0 107-48 107-107v-64H64V0h384v320zm43-299H85v278h342z"/><glyph unicode="'" d="M405 512H107c-36 0-64-29-64-64V96c0-14 9-26 21-30V11c0-6 5-11 11-11h362c6 0 11 5 11 11v55c12 4 21 16 21 30v352c0 35-28 64-64 64zm22-491H85v43h342zm21 75c0-6-5-11-11-11H75c-6 0-11 5-11 11v352c0 24 19 43 43 43h298c24 0 43-19 43-43zm-57 373H121c-20 0-36-13-36-30V222c0-17 16-30 36-30h270c20 0 36 13 36 30v217c0 17-16 30-36 30zm14-247c0-4-5-9-14-9H121c-9 0-14 5-14 9v217c0 4 5 9 14 9h270c9 0 14-5 14-9zm-256-73h-42c-6 0-11-4-11-10 0-6 5-11 11-11h42c6 0 11 5 11 11 0 6-5 10-11 10zm256 0H299c-6 0-11-4-11-10 0-6 5-11 11-11h106c6 0 11 5 11 11 0 6-5 10-11 10zM192 395c0 6-5 10-11 10-6 0-10-4-10-10v-43c0-6 4-11 10-11 6 0 11 5 11 11zm139 10c-6 0-11-4-11-10v-43c0-6 5-11 11-11 6 0 10 5 10 11v43c0 6-4 10-10 10zm-86-106h22c6 0 10 4 10 10v64c0 6-4 11-10 11-6 0-11-5-11-11v-53h-11c-6 0-10-5-10-11 0-6 4-10 10-10zm64-22c-6 0-10-4-10-10 0-6-5-11-11-11h-64c-6 0-11 5-11 11 0 6-4 10-10 10-6 0-11-4-11-10 0-18 14-32 32-32h64c18 0 32 14 32 32 0 6-5 10-11 10z"/><glyph unicode="&#40;" d="M486 350l-41 40 32 61c4 7 3 16-3 21-3 4-8 6-13 6-2 0-5-1-8-2l-61-33-42 43c-3 3-8 5-13 5-3 0-6-1-9-2-7-4-10-13-8-21l13-53-64-30c-7-3-11-11-10-19 1-8 8-14 16-15l54-7L46 61c-4-4-4-11 0-15 2-2 5-3 7-3 3 0 6 1 8 3l285 285 7-58c1-8 7-15 15-16 1 0 2 0 3 0 7 0 13 4 16 10l30 65 52-12c1-1 3-1 4-1 6 0 13 4 16 9 4 7 3 16-3 22zm-79 3-36-78-11 84-83 10 78 36-18 68 52-52 72 38-38-72 50-50z"/><glyph unicode="&#41;" d="M509 252l-60 61c-4 4-12 4-16 0L264 144c-16-16-37-25-60-25-23 0-44 9-60 25-34 33-34 87 0 120l169 169c2 2 3 5 3 8 0 3-1 6-3 8l-61 60c-4 4-10 4-15 0L64 335c-75-74-75-196 0-271 36-36 84-56 136-56 51 0 99 20 135 56l174 173c2 2 3 5 3 8 0 3-1 5-3 7zM245 486l45-45-30-30-45 45zm75-407c-32-32-75-50-120-50-46 0-89 18-121 50-67 66-67 175 0 241l121 121 45-45-116-117c-42-41-42-109 0-150 20-21 47-32 75-32 29 0 55 11 75 32l117 116 45-45zm136 136-45 45 30 30 45-45z"/><glyph unicode="&#42;" d="M461 143l-130 36v38c38 29 64 78 64 135 0 88-62 160-139 160-76 0-138-72-138-160 0-56 25-106 63-134v-39L50 143C20 132 0 104 0 72V0h512v72c0 32-20 60-51 71zM256 491c51 0 94-39 110-93-4-4-10-6-18-6-21 1-50 19-61 40l-10 17-9-18c-9-18-25-28-46-32-28-5-58 5-71 11 18 48 59 81 105 81zM140 352c0 13 1 26 4 38 20-10 52-17 82-12 22 4 39 14 52 30 18-21 46-36 70-37 0 0 1 0 2 0 8 0 15 2 21 5 2-8 2-16 2-24 0-76-52-139-117-139-64 0-116 63-116 139zM490 21H22v51c0 23 14 43 34 50l147 41v42c16-9 34-13 53-13 19 0 37 4 53 12v-41l146-41c21-7 35-27 35-50z"/><glyph unicode="&#43;" d="M256 512c-94 0-171-77-171-171 0-90 156-316 162-326l9-12 9 12c6 10 162 236 162 326 0 94-77 171-171 171zm0-472c-33 50-149 229-149 301 0 83 67 150 149 150 82 0 149-67 149-150 0-72-116-251-149-301zm0 376c-41 0-75-33-75-75 0-41 34-74 75-74 41 0 75 33 75 74 0 42-34 75-75 75zm0-128c-29 0-53 24-53 53 0 30 24 54 53 54 29 0 53-24 53-54 0-29-24-53-53-53z"/><glyph unicode="&#44;" d="M256 363c41 0 75 33 75 74 0 41-34 75-75 75-41 0-75-34-75-75 0-41 34-74 75-74zm0 128c29 0 53-24 53-54 0-29-24-53-53-53-29 0-53 24-53 53 0 30 24 54 53 54zm-43-289v-85c0-6 5-10 11-10h64c6 0 11 4 11 10v85c47 25 64 90 64 139 0 6-5 11-11 11H160c-6 0-11-5-11-11 0-49 17-114 64-139zm128 129c-2-38-16-95-57-112-4-2-7-6-7-10v-81h-42v81c0 4-3 8-7 10-41 17-55 74-57 112zM256 75c-86 0-136 17-139 26 1 2 13 13 55 20 6 1 10 7 9 13-1 6-6 9-12 8-49-8-73-22-73-41 0-38 101-48 160-48 59 0 160 10 160 48 0 19-24 33-72 41-6 1-12-2-13-8-1-6 3-12 9-13 43-7 54-18 55-19-3-10-53-27-139-27zm87 112c-6 0-11-4-12-10-1-5 3-11 9-12 99-12 151-44 151-69 0-35-97-75-235-75C118 21 21 61 21 96c0 25 52 57 151 69 6 1 10 7 9 12-1 6-6 10-12 10C87 176 0 147 0 96 0 49 90 0 256 0c166 0 256 49 256 96 0 51-87 80-169 91z"/><glyph unicode="&#45;" d="M427 299c-6 0-11-5-11-11v-32h-21v117c0 60-38 111-92 130 0 1-1 1-1 1-15 5-30 8-46 8-16 0-31-3-46-8 0 0-1 0-1-1-54-19-92-70-92-130V256H96v32c0 6-5 11-11 11-6 0-10-5-10-11v-43c0-98 74-175 170-180V0h22v65c96 5 170 82 170 180v43c0 6-4 11-10 11zm-288-22h74c6 0 11 5 11 11 0 6-5 11-11 11h-74v21h74c6 0 11 5 11 11 0 6-5 10-11 10h-74v22h74c6 0 11 4 11 10 0 6-5 11-11 11h-74c4 41 29 76 64 94v-41c0-6 4-10 10-10 6 0 11 4 11 10v49c7 2 14 3 21 4v-53c0-6 5-10 11-10 6 0 11 4 11 10v53c7-1 14-2 21-4v-49c0-6 5-10 11-10 6 0 10 4 10 10v41c35-18 60-53 64-94h-74c-6 0-11-5-11-11 0-6 5-10 11-10h74v-22h-74c-6 0-11-4-11-10 0-6 5-11 11-11h74v-21h-74c-6 0-11-5-11-11 0-6 5-11 11-11h74v-21H139zm234-42c-6-60-56-107-117-107-61 0-111 47-117 107zM256 85c-86 0-154 65-159 150h21c5-72 65-128 138-128 73 0 133 56 138 128h21c-5-85-73-150-159-150z"/><glyph unicode="&#46;" d="M348 508c-64 0-117-52-117-117 0-65 53-117 117-117 65 0 118 52 118 117 0 65-53 117-118 117zm0-213c-52 0-96 43-96 96 0 53 44 96 96 96 53 0 96-43 96-96 0-53-43-96-96-96zm160 107c0-6-4-11-10-11-6 0-11 5-11 11 0 6 5 10 11 10 6 0 10-4 10-10zm-10-22c-6 0-11-4-11-10V28c0-5 5-10 11-10 6 0 10 5 10 10v342c0 6-4 10-10 10zM396 113c-5 2-11 0-14-4-9-14-24-22-40-22-18 0-36 11-36 37 0 45-36 69-69 69-14 0-27-4-38-12-10 8-23 12-38 12-33 0-69-24-69-69 0-11-3-21-11-28-6-6-15-9-25-9-16 0-30 8-40 22-3 4-9 6-13 4-5-2-8-8-6-13C11 45 48 14 99 14c39 0 78 19 1e2 48 22-29 61-48 1e2-48 51 0 88 31 102 86 2 5-1 11-5 13zm-97-78c-37 0-76 22-90 52-2 3-6 5-10 5-4 0-8-2-9-5-15-30-54-52-91-52-18 0-46 5-66 34 7-2 15-4 23-4 0 0 0 0 0 0 15 0 30 6 40 16 12 11 18 26 18 43 0 32 24 48 47 48 12 0 23-4 30-12 4-5 12-5 16 0 7 8 18 12 30 12 23 0 47-16 47-48 0-38 30-59 58-59 8 0 16 2 23 4-20-29-48-34-66-34zm103 356c0-29-24-53-54-53-5 0-10-5-10-11 0-6 5-11 10-11 42 0 75 34 75 75 0 6-5 11-11 11-5 0-10-5-10-11z"/><glyph unicode="&#47;" d="M192 402V149h-43c-35 0-64-28-64-64 0-35 29-64 64-64 34 0 64 30 64 64v228l192 77V213h-42c-36 0-64-28-64-64 0-35 28-64 64-64 34 0 64 30 64 64v347zm0-317c0-20-18-42-43-42-23 0-42 19-42 42 0 24 19 43 42 43h43zm213 64c0-20-18-42-42-42-24 0-43 19-43 42 0 24 19 43 43 43h42zM213 336v51l192 77v-51z"/><glyph unicode="&#58;" d="M469 448c0-12-9-21-21-21-12 0-21 9-21 21 0 12 9 21 21 21 12 0 21-9 21-21zm-384 0c0-12-9-21-21-21-12 0-21 9-21 21 0 12 9 21 21 21 12 0 21-9 21-21zM469 64c0-12-9-21-21-21-12 0-21 9-21 21 0 12 9 21 21 21 12 0 21-9 21-21zM85 64c0-12-9-21-21-21-12 0-21 9-21 21 0 12 9 21 21 21 12 0 21-9 21-21zm171 245c-29 0-53-24-53-53 0-29 24-53 53-53 29 0 53 24 53 53 0 29-24 53-53 53zm0-85c-18 0-32 14-32 32 0 18 14 32 32 32 18 0 32-14 32-32 0-18-14-32-32-32zm0 224c-106 0-192-86-192-192 0-106 86-192 192-192 106 0 192 86 192 192 0 106-86 192-192 192zm0-363c-94 0-171 77-171 171 0 94 77 171 171 171 94 0 171-77 171-171 0-94-77-171-171-171zm205 57c19 35 30 74 30 114 0 40-11 79-30 114l32 33c12 12 19 28 19 45 0 17-7 33-19 45-12 12-28 19-45 19-17 0-33-7-45-19l-33-32c-35 19-74 30-114 30-40 0-79-11-114-30l-33 32c-12 12-28 19-45 19-17 0-33-7-45-19-12-12-19-28-19-45 0-17 7-33 19-45l32-33c-19-35-30-74-30-114 0-40 11-79 30-114l-32-33C7 97 0 81 0 64c0-17 7-33 19-45C31 7 47 0 64 0c17 0 33 7 45 19l33 32c35-19 74-30 114-30 40 0 79 11 114 30l33-32c12-12 28-19 45-19 17 0 33 7 45 19 12 12 19 28 19 45 0 17-7 33-19 45zm17-108c-8-8-19-13-30-13-11 0-22 5-30 13l-44 44-8-4c-33-21-71-31-110-31-39 0-77 10-110 31l-8 4-44-44c-8-8-19-13-30-13-11 0-22 5-30 13-8 8-13 19-13 30 0 11 5 22 13 30l44 44-4 8c-21 33-31 71-31 110 0 39 10 77 31 110l4 8-44 44c-8 8-13 19-13 30 0 11 5 22 13 30 8 8 19 13 30 13 11 0 22-5 30-13l44-44 8 4c33 21 71 31 110 31 39 0 77-10 110-31l8-4 44 44c8 8 19 13 30 13 11 0 22-5 30-13 8-8 13-19 13-30 0-11-5-22-13-30l-44-44 4-8c21-33 31-71 31-110 0-39-10-77-31-110l-4-8 44-44c8-8 13-19 13-30 0-11-5-22-13-30z"/><glyph unicode="&#59;" d="M331 427H181V320h150zm-22-86H203v64h106zm139 118h-11v53H53v-85H32v-22h21v-42H32v-22h21v-42H32v-22h21v-42H32v-22h21v-42H32v-22h21v-42H32V85h21V0h384v96h11c24 0 43 19 43 43v277c0 24-19 43-43 43zm0-22c12 0 21-9 21-21v-43h-32v64zm-11-149v64h32v-64zm32-21v-64h-32v64zM416 21H75v64h21v22H75v42h21v22H75v42h21v22H75v42h21v22H75v42h21v22H75v42h21v22H75v64h341zm32 96h-11v64h32v-42c0-12-9-22-21-22z"/><glyph unicode="&#60;" d="M480 277c0 26-18 48-43 53v22c0 88-71 160-160 160h-64c-88 0-160-72-160-160v-22c-24-5-42-27-42-53 0-25 18-47 42-52V59C53 18 153 0 245 0c93 0 192 18 192 59v166c25 5 43 27 43 52zM213 491h64c68 0 125-50 137-114-35 19-104 28-169 28-65 0-133-9-168-28 12 64 68 114 136 114zm32-107c111 0 171-25 171-37 0-13-60-38-171-38-110 0-170 25-170 38 0 12 60 37 170 37zM32 277c0 14 9 26 21 31v-61c-12 5-21 16-21 30zM416 59c0-13-60-38-171-38C135 21 75 46 75 59v259c34-20 104-30 170-30 67 0 137 10 171 30zm21 188v61c13-5 22-17 22-31 0-14-9-25-22-30zm-56 15c-6-2-13-4-21-6l-8-1v-95c0-18-14-32-32-32-8 0-17 3-23 9-6 6-9 14-9 23 0 21 0 43 0 59v26h-64v-42c0-12-10-22-21-22-12 0-22 10-22 22v47l-10 1c-22 1-43 5-61 10-6 2-12-1-14-7-1-5 2-11 7-13 17-5 37-9 57-11v-27c0-24 19-43 43-43 23 0 42 19 42 43v21h22v-5c0-16 0-38 0-59 0-14 5-28 15-38 10-10 24-15 38-15 29 0 53 24 53 53v78c5 1 10 2 14 4 6 1 9 7 7 13-2 6-7 9-13 7z"/><glyph unicode="&#61;" d="M267 501C143 501 43 386 43 245 43 69 192 10 260 10v0c15 0 34 2 44 14 5 6 7 13 5 21-11 53-2 87 9 101 4 5 8 7 13 7 9 0 21-9 31-25 14-20 30-30 46-30 51 0 83 97 83 147 0 149-95 256-224 256zm141-382c-11 0-21 12-28 22-19 27-37 33-49 33-11 0-22-5-30-15-18-22-23-67-13-118 1-2 0-3 0-3-3-3-12-7-28-7v0C199 31 64 85 64 245c0 130 91 235 203 235 117 0 202-99 202-235 0-51-32-126-61-126zm-205 62c-30 0-54-24-54-53 0-29 24-53 54-53 29 0 53 24 53 53 0 29-24 53-53 53zm0-85c-18 0-32 14-32 32 0 18 14 32 32 32 17 0 32-14 32-32 0-18-15-32-32-32zm-22 171c0 11-4 22-12 30-8 8-19 12-30 12-12 0-22-4-30-12-9-8-13-19-13-30 0-24 19-43 43-43 0 0 0 0 0 0 11 0 22 4 30 13 8 8 12 18 12 30zm-27-15c-4-4-10-7-15-7v-10 10c-12 0-22 10-22 22 0 5 3 11 7 15 4 4 9 6 15 6 5 0 11-2 15-6 4-4 6-10 6-15 0-6-2-11-6-15zm38 68c0 0 0 0 0 0 11 0 22 4 30 13 8 8 13 18 13 30 0 11-5 22-13 30-8 8-19 12-30 12-11 0-22-4-30-12-8-8-13-19-13-30 0-24 19-43 43-43zm-15 58c4 4 9 6 15 6 6 0 11-2 15-6 4-4 6-10 6-15 0-6-2-11-6-15-4-4-9-7-15-7v-10 10c-12 0-21 10-21 22 0 5 2 11 6 15zm111 70c-11 0-22-4-30-13-8-8-13-18-13-30 0-23 19-42 43-42 0 0 0 0 0 0 11 0 22 4 30 12 8 8 13 19 13 30 0 12-5 22-13 30-8 9-19 13-30 13zm15-58c-4-4-9-6-15-6v-11 11c-12 0-21 10-21 21 0 6 2 11 6 15 4 4 9 7 15 7 6 0 11-3 15-7 4-4 6-9 6-15 0-5-2-11-6-15zm81-17c-11 0-22-4-30-12-8-8-13-19-13-30 0-24 19-43 43-43 0 0 0 0 0 0 11 0 22 4 30 13 8 8 13 18 13 30 0 11-5 22-13 30-8 8-19 12-30 12zm15-57c-4-4-9-7-15-7v-10 10c-12 0-21 10-21 22 0 5 2 11 6 15 4 4 9 6 15 6 6 0 11-2 15-6 4-4 6-10 6-15 0-6-2-11-6-15z"/><glyph unicode="&#62;" d="M448 427h-21v21c0 24-19 43-43 43H128c-24 0-43-19-43-43v-21c-27 0-42-16-42-43v-43c0-27 15-42 42-42h160c6 0 11-5 11-11v-87c-20-4-32-23-32-52V32c0-18 14-32 32-32h21c18 0 32 14 32 32v117c0 29-11 48-32 52v87c0 18-14 32-32 32H85c-15 0-21 6-21 21v43c0 15 6 21 21 21v-21c0-24 19-43 43-43h256c24 0 43 19 43 43v21h21zM288 149V32c0-6-5-11-11-11h-21c-6 0-11 5-11 11v117c0 32 16 32 22 32 5 0 21 0 21-32zm117 235c0-12-9-21-21-21H128c-12 0-21 9-21 21v64c0 12 9 21 21 21h256c12 0 21-9 21-21z"/><glyph unicode="&#63;" d="M509 449l-60 60c-2 2-5 3-8 3-3 0-5-1-7-3l-9-8c-20 13-49 11-67-7L238 373c-5-4-5-11 0-15 2-2 4-3 7-3 3 0 6 1 8 3l120 121c10 10 25 12 37 6L102 177c-4-4-4-11 0-15l4-4c-4 1-7 1-10 1-17 0-33-7-45-19C11 101 11 24 11 21c0 0 0 0 0 0V10h10c4 0 80 1 120 41 12 12 18 28 18 45 0 3 0 6-1 9l4-3c2-2 5-4 8-4 3 0 5 2 7 4l211 211c0 0 0 0 0 0 0 0 0 0 0 0l121 120c4 5 4 11 0 16zM126 66c-20-20-53-28-76-32l39 40c4 4 4 11 0 15-4 4-11 4-15 0L34 49c4 24 12 57 32 76 8 8 19 13 30 13 11 0 22-5 30-13 8-8 12-18 12-29 0-12-4-22-12-30zm44 58-46 45 197 197 45-46zm211 211-45 46 105 105 45-45z"/><glyph unicode="&#64;" d="M509 448l-61 61c-2 2-4 3-7 3-3 0-6-1-8-3l-8-9c-21 14-49 12-67-6L237 373c-4-4-4-11 0-15 2-2 5-3 8-3 2 0 5 1 7 3l121 121c10 9 24 11 36 6L63 139c-4-4-4-11 0-15l8-8-38-37c-2-2-3-5-3-8 0-3 1-6 3-8l8-7L3 18C-1 14-1 7 3 3c2-2 5-3 8-3 2 0 5 1 7 3l38 38 7-8c3-2 5-3 8-3 3 0 5 1 8 3l37 38 8-8c2-2 5-3 7-3 3 0 6 1 8 3l370 370c4 4 4 11 0 15zM71 56 56 71l30 30 15-15zm60 30-37 38c0 0 0 0 0 0 0 0 0 0 0 0l-8 7 234 234 45-45zm249 249-45 45 106 106 45-45z"/><glyph unicode="&#91;" d="M336 419l69 93H107l69-93c-25-17-91-67-91-142C85 190 210 12 215 5l3-5h76l3 5c5 7 130 185 130 272 0 75-66 125-91 142zm27 72-48-64H197l-48 64zM282 21h-15v214h-22V21h-15c-20 29-123 183-123 256 0 71 74 120 88 128h122c14-8 88-57 88-128 0-73-103-227-123-256zm27 267c0 29-24 53-53 53-29 0-53-24-53-53 0-29 24-53 53-53 29 0 53 24 53 53zm-53-32c-18 0-32 14-32 32 0 18 14 32 32 32 18 0 32-14 32-32 0-18-14-32-32-32z"/><glyph unicode="&#93;" d="M299 378v27h19l26 107H168l26-107h19v-27c-52-16-85-61-85-122 0-61 50-148 86-212 8-14 16-27 22-38l3-6h34l3 6c6 11 14 24 22 38 36 64 86 151 86 212 0 61-33 106-85 122zM195 491h122l-16-64h-90zm40-86h42v-23c-7 1-14 2-21 2-7 0-14-1-21-2zm21-192c-12 0-21 10-21 22 0 11 9 21 21 21 12 0 21-10 21-21 0-12-9-22-21-22zm23-158c-4-8-8-15-12-22v161c18 4 32 21 32 41 0 23-19 42-43 42-24 0-43-19-43-42 0-20 14-37 32-41V33c-4 7-8 14-12 22-35 61-84 146-84 201 0 65 42 107 107 107 65 0 107-42 107-107 0-55-49-140-84-201z"/><glyph unicode="&#94;" d="M427 139H85v213h22v21H75c-6 0-11-4-11-10V128c0-6 5-11 11-11h362c6 0 11 5 11 11v53h-21zm74 320H139c-6 0-11-5-11-11V213c0-6 5-10 11-10h362c6 0 11 4 11 10v235c0 6-5 11-11 11zm-10-235H149v213h342zM363 53H21v214h22v21H11c-6 0-11-5-11-11V43c0-6 5-11 11-11h362c6 0 11 5 11 11v53h-21z"/><glyph unicode="&#95;" d="M0 512V0h512v512zm491-21V149h-15l-73 145c-7 16-23 26-41 26-17 0-32-9-40-23l-57-97c-16 20-52 56-94 56-53 0-92-81-103-107H21v342zm-39-342H91c16 33 47 86 80 86 47 0 86-59 87-60 2-3 5-5 9-4 4 0 7 2 9 5l64 110c5 8 13 13 22 13 9 0 18-6 22-14zM21 21v107h470V21zm118 299h64c35 0 64 29 64 64 0 35-29 64-64 64-28 0-52-17-61-43-24 2-46-18-46-42 0-24 19-43 43-43zm0 64c2 0 5-1 7-2l13-4 2 13c3 21 21 36 42 36 23 0 42-19 42-43 0-24-19-43-42-43h-64c-12 0-22 10-22 22 0 11 10 21 22 21z"/><glyph unicode="&#96;" d="M491 395V21H117V0h395v395zm-22 64h-21V64H53V43h416zm-42-288v341H0V85h427zM21 491h384V192h-35l-61 164c-2 3-5 6-9 7-4 0-8-2-10-5l-78-116-44 53c-2 2-5 4-9 4-3-1-6-3-8-6L90 192H21zm326-299H115l46 78 44-53c2-2 6-4 9-4 3 1 6 2 8 5l74 111zM21 107v64h384v-64zm107 256c24 0 43 19 43 42 0 24-19 43-43 43-24 0-43-19-43-43 0-23 19-42 43-42zm0 64c12 0 21-10 21-22 0-11-9-21-21-21-12 0-21 10-21 21 0 12 9 22 21 22z"/><glyph unicode="&#123;" d="M256 395h43c6 0 10 4 10 10 0 6-4 11-10 11h-43c-6 0-11-5-11-11 0-6 5-10 11-10zm139-22H277c-6 0-10-4-10-10 0-6 4-11 10-11h118c6 0 10 5 10 11 0 6-4 10-10 10zm-150-64h139c6 0 11 5 11 11 0 6-5 11-11 11H245c-6 0-10-5-10-11 0-6 4-11 10-11zm150-21H245c-6 0-10-5-10-11 0-6 4-10 10-10h150c6 0 10 4 10 10 0 6-4 11-10 11zm-22-64c6 0 11 5 11 11 0 6-5 10-11 10H245c-6 0-10-4-10-10 0-6 4-11 10-11zm11-21H235c-6 0-11-5-11-11 0-6 5-11 11-11h149c6 0 11 5 11 11 0 6-5 11-11 11zm96 309H214c-25 0-32-28-33-43 0-2 2-192-19-309H64c-9 0-17-3-23-9-12-12-12-34-12-58 0-21 1-44-10-55-4-4-10-6-19-6V11h266c15 0 26 4 35 12 8 8 11 19 14 30h79c9 0 18 4 25 12 45 46 51 250 50 351h43v11c0 32-4 85-32 85zM286 38c-5-4-11-6-20-6H41c10 17 10 40 10 61 0 18-1 37 6 43 1 1 2 3 7 3h236c-5-13-5-29-5-46 1-21 1-44-9-55zm31 55c0 18 0 37 6 43 1 1 3 3 7 3 4 0 8-1 10-3 4-4 4-14 4-24-1-12-1-26 5-37h-32c0 6 0 12 0 18zm87-13c-5-5-9-5-10-5-11 0-19 2-23 6-6 6-6 19-6 31 0 14 0 29-10 39-6 6-14 9-25 9H184c21 119 19 301 19 309 0 0 1 22 11 22h238c-3-8-4-16-5-22 3-93 0-345-43-389zm65 357c0 16 0 27 0 32 0 0 1 20 10 22v0c6-4 10-28 11-54z"/><glyph unicode="&#124;" d="M461 17l-55 72v94c0 36-21 52-52 78-4 3-8 7-12 11v48c0 24-20 43-43 43H150c-24 0-43-19-43-43V85c0-23 19-42 43-42h152c2-8 6-16 11-23l11-16c2-2 5-4 8-4 3 0 5 1 7 2 4 3 6 10 2 15l-11 15c-6 9-10 20-10 31v33l-2 6-48 69-1 2c-5 5-5 12 0 17 5 4 12 4 17 0l59-59c4-4 11-4 15 0 4 4 4 11 0 15l-18 18v80c29-24 42-36 42-61V85l2-6 59-75c2-3 5-4 8-4 2 0 5 1 7 2 4 4 5 11 1 15zM301 205c-13 13-34 13-47 0-13-13-13-33-1-46l46-66V64H150c-12 0-22 10-22 21v235c0 12 10 21 22 21h149c12 0 21-9 21-21V186zM164 380c16 16 37 25 60 25 23 0 44-9 61-25l15 15c-20 21-47 32-76 32-28 0-55-11-75-32zm166 46c-58 58-153 58-211 0l15-15c50 49 131 49 181 0zm15 15 15 15c-75 75-197 75-272 0l16-15c66 66 174 66 241 0zM192 288c0-6-5-11-10-11-6 0-11 5-11 11 0 6 5 11 11 11 5 0 10-5 10-11zm43 0c0-6-5-11-11-11-6 0-10 5-10 11 0 6 4 11 10 11 6 0 11-5 11-11zm43 0c0-6-5-11-11-11-6 0-11 5-11 11 0 6 5 11 11 11 6 0 11-5 11-11zm-86-43c0-6-5-10-10-10-6 0-11 4-11 10 0 6 5 11 11 11 5 0 10-5 10-11zm43 0c0-6-5-10-11-10-6 0-10 4-10 10 0 6 4 11 10 11 6 0 11-5 11-11zm-43-42c0-6-5-11-10-11-6 0-11 5-11 11 0 6 5 10 11 10 5 0 10-4 10-10zm43 0c0-6-5-11-11-11-6 0-10 5-10 11 0 6 4 10 10 10 6 0 11-4 11-10zm-43-43c0-6-5-11-10-11-6 0-11 5-11 11 0 6 5 11 11 11 5 0 10-5 10-11zm43 0c0-6-5-11-11-11-6 0-10 5-10 11 0 6 4 11 10 11 6 0 11-5 11-11zm-43-43c0-6-5-10-10-10-6 0-11 4-11 10 0 6 5 11 11 11 5 0 10-5 10-11zm43 0c0-6-5-10-11-10-6 0-10 4-10 10 0 6 4 11 10 11 6 0 11-5 11-11zm43 128c0-6-5-10-11-10-6 0-11 4-11 10 0 6 5 11 11 11 6 0 11-5 11-11z"/><glyph unicode="&#125;" d="M469 512H43c-24 0-43-19-43-43V43C0 19 19 0 43 0h426c24 0 43 19 43 43v426c0 24-19 43-43 43zm22-469c0-12-10-22-22-22H43c-12 0-22 10-22 22v426c0 12 10 22 22 22h426c12 0 22-10 22-22zm-96 256h-22v138c0 6-4 11-10 11-6 0-11-5-11-11V299h-21c-6 0-11-5-11-11v-43c0-6 5-10 11-10h21v-32c0-6 5-11 11-11 6 0 10 5 10 11v32h22c6 0 10 4 10 10v43c0 6-4 11-10 11zm-11-43h-43v21h43zm-96 149h-21v32c0 6-5 11-11 11-6 0-11-5-11-11v-32h-21c-6 0-11-4-11-10v-43c0-6 5-11 11-11h21V203c0-6 5-11 11-11 6 0 11 5 11 11v138h21c6 0 11 5 11 11v43c0 6-5 10-11 10zm-11-42h-42v21h42zm-96-22h-21v96c0 6-5 11-11 11-6 0-10-5-10-11v-96h-22c-6 0-10-4-10-10v-43c0-6 4-11 10-11h22v-74c0-6 4-11 10-11 6 0 11 5 11 11v74h21c6 0 11 5 11 11v43c0 6-5 10-11 10zm-10-42h-43v21h43zm192-150c-24 0-43-19-43-42 0-24 19-43 43-43 23 0 42 19 42 43 0 23-19 42-42 42zm0-64c-12 0-22 10-22 22 0 11 10 21 22 21 11 0 21-10 21-21 0-12-10-22-21-22zm-107 64c-24 0-43-19-43-42 0-24 19-43 43-43 24 0 43 19 43 43 0 23-19 42-43 42zm0-64c-12 0-21 10-21 22 0 11 9 21 21 21 12 0 21-10 21-21 0-12-9-22-21-22zm-107 64c-23 0-42-19-42-42 0-24 19-43 42-43 24 0 43 19 43 43 0 23-19 42-43 42zm0-64c-11 0-21 10-21 22 0 11 10 21 21 21 12 0 22-10 22-21 0-12-10-22-22-22z"/><glyph unicode="&#126;" d="M480 309h-40c-4 14-9 27-16 40l28 28c6 6 9 14 9 22 0 9-3 17-9 23l-30 30c-12 12-33 12-45 0l-28-28c-13 7-26 12-40 16v40c0 18-14 32-32 32h-42c-18 0-32-14-32-32v-40c-14-4-27-9-40-16l-28 28c-12 12-33 12-45 0l-30-30c-13-13-13-33 0-45l28-28c-7-13-12-26-16-40H32c-9 0-17-3-23-9-6-6-9-14-9-23v-42c0-18 14-32 32-32h40c4-14 9-27 16-40l-28-28c-6-6-10-14-10-22 0-9 4-17 10-23l30-30c12-12 33-12 45 0l28 28c13-7 26-12 40-16V32c0-18 14-32 32-32h42c18 0 32 14 32 32v40c14 4 27 9 40 16l28-28c12-12 33-12 45 0l30 30c13 13 13 33 0 45l-28 28c7 13 12 26 16 40h40c9 0 17 3 23 9 6 6 9 14 9 23v42c0 18-14 32-32 32zm11-74c0-3-1-6-3-8-2-2-5-3-8-3h-48c-5 0-9-3-10-8-4-17-11-34-20-49-3-4-2-9 1-13l34-34c4-4 4-11 0-15l-30-30c-4-4-11-4-15 0l-34 34c-4 3-9 4-13 1-15-9-32-16-49-20-5-1-8-5-8-10V32c0-6-5-11-11-11h-42c-6 0-11 5-11 11v48c0 5-3 9-8 10-17 4-34 11-49 20-1 2-3 2-5 2-3 0-6-1-8-3l-34-34c-4-4-11-4-15 0l-30 30c-2 2-3 5-3 8 0 2 1 5 3 7l34 34c3 4 4 9 1 13-9 15-16 32-20 49-1 5-5 8-10 8H32c-6 0-11 5-11 11v42c0 3 1 6 3 8 2 2 5 3 8 3h48c5 0 9 3 10 8 4 17 11 34 20 49 3 4 2 9-1 13l-34 34c-4 4-4 11 0 15l30 30c4 4 11 4 15 0l34-34c4-3 9-4 13-1 15 9 32 16 49 20 5 1 8 5 8 10v48c0 6 5 11 11 11h42c6 0 11-5 11-11v-48c0-5 3-9 8-10 17-4 34-11 49-20 4-3 9-2 13 1l34 34c4 4 11 4 15 0l30-30c2-2 3-5 3-8 0-2-1-5-3-7l-34-34c-3-4-4-9-1-13 9-15 16-32 20-49 1-5 5-8 10-8h48c6 0 11-5 11-11zM256 363c-59 0-107-48-107-107 0-59 48-107 107-107 59 0 107 48 107 107 0 59-48 107-107 107zm0-192c-47 0-85 38-85 85 0 47 38 85 85 85 47 0 85-38 85-85 0-47-38-85-85-85z"/><glyph unicode="&#92;" d="M478 94l-90 91 15 15c4 4 4 11 0 15-4 4-11 4-15 0l-38-38-56 56 70 71c10-4 20-5 31-5 25 0 49 10 68 28 27 28 35 69 20 105-1 3-4 6-8 6-3 1-7 0-9-3l-38-37h-30v30l37 38c3 2 4 6 3 9 0 4-3 7-6 8-12 5-24 8-37 8-26 0-50-10-68-28-26-27-35-64-23-99l-71-70-110 111 7 7c2 2 3 5 3 8 0 2-1 5-3 7l-60 61c-4 4-11 4-15 0l-31-31c-2-2-3-4-3-7 0-3 1-6 3-8l61-60c2-2 5-3 7-3 3 0 6 1 8 3l7 7 111-110-70-71c-10 4-20 5-31 5-25 0-49-10-68-28-27-28-35-69-20-105 1-3 4-6 8-6 3-1 7 0 9 2l38 38h30V84L76 46c-2-2-3-6-2-9 0-4 3-7 6-8 12-5 24-8 37-8 26 0 50 10 68 28 26 26 35 64 23 99l71 70 56-56-38-38c-4-4-4-11 0-15 2-2 5-3 8-3 2 0 5 1 7 3l15 15 91-90c8-8 19-13 30-13 11 0 22 5 30 13 8 8 13 19 13 30 0 11-5 22-13 30zM92 405l-45 45 15 15 45-45zm94-259c12-28 6-60-16-82-14-14-33-21-53-21-4 0-9 0-13 1l28 28c2 2 4 5 4 8v45c0 6-5 10-11 10H80c-3 0-6-1-8-3l-28-28c-4 24 3 48 21 66 14 14 32 22 52 22 10 0 20-2 29-6 4-2 9-1 12 2l166 166c3 3 4 7 2 11-12 29-6 61 16 82 14 14 33 22 53 22 4 0 8 0 13-1l-28-28c-2-2-4-5-4-8v-45c0-6 5-11 11-11h45c3 0 6 2 8 4l28 28c4-24-3-49-21-66-14-14-32-22-52-22-10 0-20 2-29 6-4 2-9 1-12-2L188 158c-3-3-4-8-2-12zm277-97c-8-8-22-8-30 0l-91 90 31 31 90-91c4-4 6-9 6-15 0-6-2-11-6-15z"/><glyph unicode="&#57344;" d="M503 43H13C7 43 2 47 2 53v150c0 17 14 32 32 32h21c6 0 11-5 11-11 0-7 28-21 64-21 44 0 64 12 64 21 0 3 2 7 4 9 3 2 7 2 10 1l285-102c12-4 21-16 21-30V53c0-6-5-10-11-10zM23 64h470v38c0 5-3 9-8 10l-273 98c-10-18-40-29-82-29-35 0-73 12-83 32H34c-6 0-11-4-11-10zm-10 43h490V85H13zm224 64c-3 0-6 1-8 3-4 4-4 11 0 15l23 23c4 4 11 4 15 0 4-4 4-11 0-15l-23-23c-2-2-5-3-7-3zm42-11c-3 0-5 1-7 3-5 4-5 11 0 15l19 20c4 4 11 4 15 0 5-4 5-11 0-15l-19-20c-2-2-5-3-8-3zm-10-64h-22v11c0 23 19 42 43 42h64c5 0 11 8 11 14h21c0-17-13-35-32-35h-64c-12 0-21-10-21-21zM77 85c-6 0-11 5-11 11 0 29-24 53-53 53-6 0-11 5-11 11 0 6 5 11 11 11 41 0 74-34 74-75 0-6-5-11-10-11zm234 192c-1 0-2 1-3 1L23 380c-13 4-21 16-21 30v49c0 6 5 10 11 10h490c6 0 11-4 11-10V309c0-17-14-32-32-32h-21c-6 0-11 5-11 11 0 7-28 21-64 21-44 0-64-12-64-21 0-3-2-7-5-9-1-1-4-2-6-2zm158 22h13c6 0 11 4 11 10v139H23v-38c0-5 3-9 7-10l274-98c10 18 40 29 82 29 35 0 73-12 83-32zM13 427h490v-22H13zm243-130c-2 0-5 1-7 3-4 4-4 11 0 15l23 23c4 4 11 4 15 0 4-4 4-11 0-15l-23-23c-2-2-5-3-8-3zm-39 14c-3 0-6 1-8 3-4 4-4 11 0 15l20 20c4 4 11 4 15 0 4-4 4-11 0-15l-20-20c-2-2-4-3-7-3zm-66 38h-21c0 17 13 35 32 35h64c12 0 21 10 21 21v11h22v-11c0-23-20-42-43-42h-64c-5 0-11-8-11-14zm352-8c-41 0-74 34-74 75 0 6 4 11 10 11 6 0 11-5 11-11 0-29 24-53 53-53 6 0 11-5 11-11 0-6-5-11-11-11z"/><glyph unicode="&#57345;" d="M501 512H181c-6 0-10-5-10-11v-85c0-6 4-11 10-11 6 0 11 5 11 11v75h299V320h-64c-3 0-6-1-8-3l-67-67v59c0 6-5 11-11 11h-42c-6 0-11-5-11-11 0-6 5-10 11-10h32v-75c0-4 2-8 6-10 2 0 3-1 4-1 3 0 6 1 8 3l82 83h70c6 0 11 4 11 10v192c0 6-5 11-11 11zM301 1e2l-78 28v36c25 20 40 53 40 91 0 61-42 112-94 112-53 0-95-51-95-112 0-40 17-75 44-94v-33l-77-28C16 91 0 68 0 42V0h341v42c0 26-16 49-40 58zM169 345c35 0 64-31 72-71-23-4-37 3-50 27l-10 17-9-17c-7-14-33-27-54-27-8 0-14 1-21 3 9 39 37 68 72 68zm-74-90c0 0 0 1 0 1 7-2 15-3 23-3 23 0 48 10 63 25 13-18 29-27 49-27 4 0 8 1 12 1-1-48-34-88-73-88-41 0-74 41-74 91zM320 21H21v21c0 17 11 32 27 38l91 33v36c9-4 19-6 30-6 11 0 23 3 33 8v-38l92-33c15-6 26-21 26-38zm85 374c0-6-4-11-10-11-6 0-11 5-11 11 0 6 5 10 11 10 6 0 10-4 10-10zm-53 0c0-6-5-11-11-11-6 0-10 5-10 11 0 6 4 10 10 10 6 0 11-4 11-10zm-53 0c0-6-5-11-11-11-6 0-11 5-11 11 0 6 5 10 11 10 6 0 11-4 11-10z"/><glyph unicode="&#57346;" d="M459 171H355c-70 48-38 119-12 177 11 24 20 42 20 57 0 70-54 106-107 106-53 0-107-36-107-106 0-15 9-34 20-57 26-58 58-128-12-177H53c-29 0-53-24-53-54V53c0-6 5-10 11-10h10V11c0-6 5-11 11-11h448c6 0 11 5 11 11v32h10c6 0 11 4 11 10v64c0 30-24 54-53 54zm10-150H43v22h426zm22 43H21v53c0 18 15 32 32 32h107c2 0 4 1 6 2 89 59 49 147 22 205-9 20-17 39-17 49 0 58 44 85 85 85 41 0 85-27 85-85 0-10-8-29-17-48-27-59-66-147 22-206 2-1 4-2 6-2h107c17 0 32-14 32-32z"/><glyph unicode="&#57347;" d="M469 384H341v53c0 18-14 32-32 32H203c-18 0-32-14-32-32v-53H43c-24 0-43-19-43-43V64c0-24 19-43 43-43h426c24 0 43 19 43 43v277c0 24-19 43-43 43zm-266 64h106c6 0 11-5 11-11v-10H192v10c0 6 5 11 11 11zm-11-43h128v-21H192zM491 64c0-12-10-21-22-21H43c-12 0-22 9-22 21v277c0 12 10 22 22 22h426c12 0 22-10 22-22zm-64 235H75c-6 0-11-5-11-11 0-6 5-11 11-11h352c6 0 10 5 10 11 0 6-4 11-10 11zm0-86H75c-6 0-11-4-11-10 0-6 5-11 11-11h352c6 0 10 5 10 11 0 6-4 10-10 10zm0-85H75c-6 0-11-5-11-11 0-6 5-10 11-10h352c6 0 10 4 10 10 0 6-4 11-10 11z"/><glyph unicode="&#57348;" d="M150 298c3 5 1 12-4 15-4 3-11 2-14-3l-43-66c-2 35 6 71 25 102 24 38 62 66 106 76 61 15 125-6 167-53 4-4 11-5 15-1 5 4 5 11 1 15-47 53-119 76-188 60-50-12-92-42-119-86-20-33-30-71-28-109l-47 54c-4 4-11 5-15 1-4-4-5-11-1-15l70-81c0 0 0 0 0 0 1-1 2-1 3-2 0 0 0 0 1-1 1 0 2 0 4 0 0 0 0 0 0 0 0 0 0 0 1 0 0 0 0 0 0 0 0 0 1 0 1 0 1 0 2 0 2 1 1 0 1 0 2 0 1 1 2 2 2 3 1 0 1 0 1 0zm358-104-60 88c0 1 0 1 0 1-1 1-2 2-3 2 0 1-1 1-1 1-1 0-2 1-3 1 0 0-1 0-1 0 0 0-1 0-2 0 0 0 0 0 0 0 0 0 0 0 0 0-1 0-2-1-4-1 0 0 0 0 0 0-1-1-2-2-3-3l-68-82c-4-4-3-11 1-15 5-3 12-3 15 2l51 60c-4-75-56-140-131-158-58-14-117 3-160 45-4 4-11 4-15-1-4-4-4-10 0-15 37-36 85-55 135-55 15 0 30 2 45 5 82 20 140 90 147 172l39-59c2-3 6-5 9-5 2 0 4 1 6 2 5 3 6 10 3 15z"/><glyph unicode="&#57349;" d="M441 390c-46 49-108 76-174 79v32c0 6-5 11-11 11-6 0-11-5-11-11v-32c-66-3-128-30-174-79C22 339-3 273 0 202c1-6 5-10 11-10 6 0 11 5 11 11 0 0 0 12 9 21 7 7 18 11 33 11 44 0 53-34 54-35 1-5 5-8 10-8 5 0 9 3 10 8 0 0 9 35 54 35 40 0 51-28 53-34V43c0-23 19-35 38-35 18 0 37 12 37 35 0 6-5 10-11 10-6 0-10-4-10-10 0-13-15-14-16-14-2 0-16 1-16 14v157c4 8 22 35 53 35 35 0 54-37 54-37 2-4 6-6 10-6 0 0 0 0 0 0 4 0 8 2 10 6 0 0 19 37 54 37 33 0 42-33 43-35 1-5 5-8 10-8 0 0 1 0 1 0 5 1 9 5 10 10 3 71-22 137-71 188zm7-134c-32 0-53-20-64-34-11 14-32 34-64 34-30 0-51-18-62-32-11 16-32 32-66 32-33 0-53-15-64-30-11 15-31 30-64 30-16 0-30-4-41-11 7 49 29 94 63 131 45 46 105 72 170 72 65 0 125-26 170-72 35-38 57-85 63-135-10 9-23 15-41 15z"/></font>
</defs>
</svg>
